<?xml version="1.0" encoding="UTF-8" standalone="no"?>
<svg
   version="1.1"
   width="2511.2124"
   height="671.12292"
   viewBox="0 0 2511.2124 671.12292"
   id="Layer_1"
   xml:space="preserve"
   sodipodi:docname="track_gauges_comparation.svg"
   inkscape:version="1.2.2 (b0a8486541, 2022-12-01)"
   xmlns:inkscape="http://www.inkscape.org/namespaces/inkscape"
   xmlns:sodipodi="http://sodipodi.sourceforge.net/DTD/sodipodi-0.dtd"
   xmlns="http://www.w3.org/2000/svg"
   xmlns:svg="http://www.w3.org/2000/svg"><sodipodi:namedview
   id="namedview111"
   pagecolor="#ffffff"
   bordercolor="#111111"
   borderopacity="1"
   inkscape:pageshadow="0"
   inkscape:pageopacity="0"
   inkscape:pagecheckerboard="1"
   showgrid="false"
   fit-margin-top="0"
   fit-margin-left="0"
   fit-margin-right="0"
   fit-margin-bottom="0"
   lock-margins="true"
   inkscape:zoom="0.26872038"
   inkscape:cx="1267.1164"
   inkscape:cy="1053.1393"
   inkscape:window-width="1920"
   inkscape:window-height="1029"
   inkscape:window-x="0"
   inkscape:window-y="27"
   inkscape:window-maximized="1"
   inkscape:current-layer="Layer_1"
   inkscape:showpageshadow="0"
   inkscape:deskcolor="#d1d1d1" />
     <defs
   id="defs112"><rect
     x="181.56557"
     y="-52.627701"
     width="7.894155"
     height="47.364929"
     id="rect156929" /></defs>
	<rect
   style="fill:#ffffff;fill-opacity:1;stroke:#000000;stroke-width:3.77953;stroke-linejoin:round;paint-order:markers stroke fill"
   id="rect161858"
   width="2507.4329"
   height="667.34338"
   x="1.889765"
   y="1.889765"
   ry="29.603085" /><g
   transform="translate(711.61211,67.630141)"
   style="stroke-linecap:butt"
   id="g84">
		<polygon
   style="fill:#000000;stroke:none"
   points="-4,450 -4,-5 0,-5 0,450 "
   id="polygon3" /> 
		<path
   transform="translate(-66)"
   style="fill:#000000"
   d="m 15,423.9 h 36.4 c 8.2,0 14.6,6.6 14.6,14.7 v 17.2 c 0,8.1 -11,13.3 -16.7,14.7 -5.6,1.4 -7,4.1 -6.9,7.5 l 2.5,67 c 0.2,4.3 4.5,8.5 8.7,9.3 l 40.6,9.2 c 3,0.6 5.8,3.8 5.8,6.7 v 9.5 H -33.6 v -10.3 c 0,-2.6 2.6,-5.3 5.2,-5.8 l 41.7,-9.3 c 4.2,-0.9 8,-5.6 8.2,-9.8 L 24,478 c 0,-3.4 -1.4,-6.1 -7,-7.5 -5.6,-1.4 -17,-6.6 -17,-14.6 v -17.3 c 0,-8.1 6.8,-14.7 15,-14.7 z"
   id="path5" />
		<g
   id="SW0600">
			<polygon
   transform="translate(600,-5)"
   points="4,400 4,450 0,450 0,400 "
   style="fill:#000000;stroke:none"
   id="polygon7" />
			<path
   transform="translate(600)"
   style="fill:#e5c4a1;stroke:none"
   d="m 15,423.9 h 36.4 c 8.2,0 14.6,6.6 14.6,14.7 v 17.2 c 0,8.1 -11,13.3 -16.7,14.7 -5.6,1.4 -7,4.1 -6.9,7.5 l 2.5,67 c 0.2,4.3 4.5,8.5 8.7,9.3 l 40.6,9.2 c 3,0.6 5.8,3.8 5.8,6.7 v 9.5 H -33.6 v -10.3 c 0,-2.6 2.6,-5.3 5.2,-5.8 l 41.7,-9.3 c 4.2,-0.9 8,-5.6 8.2,-9.8 L 24,478 c 0,-3.4 -1.4,-6.1 -7,-7.5 -5.6,-1.4 -17,-6.6 -17,-14.6 v -17.3 c 0,-8.1 6.8,-14.7 15,-14.7 z"
   id="path9" />
			<polyline
   style="fill:none;stroke:#e5c4a1;stroke-width:10"
   points="0,400 600,400"
   id="polyline11" />
		</g>
		<g
   id="SW0762">
			<polygon
   transform="translate(762,-5)"
   points="4,360 4,450 0,450 0,360 "
   style="fill:#000000;stroke:none"
   id="polygon14" />
			<path
   transform="translate(762)"
   style="fill:#e65000"
   d="m 15,423.9 h 36.4 c 8.2,0 14.6,6.6 14.6,14.7 v 17.2 c 0,8.1 -11,13.3 -16.7,14.7 -5.6,1.4 -7,4.1 -6.9,7.5 l 2.5,67 c 0.2,4.3 4.5,8.5 8.7,9.3 l 40.6,9.2 c 3,0.6 5.8,3.8 5.8,6.7 v 9.5 H -33.6 v -10.3 c 0,-2.6 2.6,-5.3 5.2,-5.8 l 41.7,-9.3 c 4.2,-0.9 8,-5.6 8.2,-9.8 L 24,478 c 0,-3.4 -1.4,-6.1 -7,-7.5 -5.6,-1.4 -17,-6.6 -17,-14.6 v -17.3 c 0,-8.1 6.8,-14.7 15,-14.7 z"
   id="path16" />
			<polyline
   style="fill:none;stroke:#e65000;stroke-width:10"
   points="0,360 762,360"
   id="polyline18" />
		</g>
		<g
   id="SW0914">
			<polygon
   transform="translate(914,-5)"
   points="4,320 4,450 0,450 0,320 "
   style="fill:#000000;stroke:none"
   id="polygon21" />
			<path
   transform="translate(914)"
   style="fill:#e1392f"
   d="m 15,423.9 h 36.4 c 8.2,0 14.6,6.6 14.6,14.7 v 17.2 c 0,8.1 -11,13.3 -16.7,14.7 -5.6,1.4 -7,4.1 -6.9,7.5 l 2.5,67 c 0.2,4.3 4.5,8.5 8.7,9.3 l 40.6,9.2 c 3,0.6 5.8,3.8 5.8,6.7 v 9.5 H -33.6 v -10.3 c 0,-2.6 2.6,-5.3 5.2,-5.8 l 41.7,-9.3 c 4.2,-0.9 8,-5.6 8.2,-9.8 L 24,478 c 0,-3.4 -1.4,-6.1 -7,-7.5 -5.6,-1.4 -17,-6.6 -17,-14.6 v -17.3 c 0,-8.1 6.8,-14.7 15,-14.7 z"
   id="path23" />
			<polyline
   style="fill:none;stroke:#e1392f;stroke-width:10"
   points="0,320 914,320"
   id="polyline25" />
		</g>
		<g
   id="SW1000">
			<polygon
   transform="translate(1000,-5)"
   points="4,280 4,450 0,450 0,280 "
   style="fill:#000000;stroke:none"
   id="polygon28" />
			<path
   transform="translate(1000)"
   style="fill:#c55e8d"
   d="m 15,423.9 h 36.4 c 8.2,0 14.6,6.6 14.6,14.7 v 17.2 c 0,8.1 -11,13.3 -16.7,14.7 -5.6,1.4 -7,4.1 -6.9,7.5 l 2.5,67 c 0.2,4.3 4.5,8.5 8.7,9.3 l 40.6,9.2 c 3,0.6 5.8,3.8 5.8,6.7 v 9.5 H -33.6 v -10.3 c 0,-2.6 2.6,-5.3 5.2,-5.8 l 41.7,-9.3 c 4.2,-0.9 8,-5.6 8.2,-9.8 L 24,478 c 0,-3.4 -1.4,-6.1 -7,-7.5 -5.6,-1.4 -17,-6.6 -17,-14.6 v -17.3 c 0,-8.1 6.8,-14.7 15,-14.7 z"
   id="path30" />
			<polyline
   style="fill:none;stroke:#c55e8d;stroke-width:10"
   points="0,280 1000,280"
   id="polyline32" />
		</g>
		<g
   id="SW1067">
			<polygon
   transform="translate(1067,-5)"
   points="4,450 0,450 0,240 4,240 "
   style="fill:#000000;stroke:none"
   id="polygon35" />
			<path
   transform="translate(1067)"
   style="fill:#6a51b7"
   d="m 15,423.9 h 36.4 c 8.2,0 14.6,6.6 14.6,14.7 v 17.2 c 0,8.1 -11,13.3 -16.7,14.7 -5.6,1.4 -7,4.1 -6.9,7.5 l 2.5,67 c 0.2,4.3 4.5,8.5 8.7,9.3 l 40.6,9.2 c 3,0.6 5.8,3.8 5.8,6.7 v 9.5 H -33.6 v -10.3 c 0,-2.6 2.6,-5.3 5.2,-5.8 l 41.7,-9.3 c 4.2,-0.9 8,-5.6 8.2,-9.8 L 24,478 c 0,-3.4 -1.4,-6.1 -7,-7.5 -5.6,-1.4 -17,-6.6 -17,-14.6 v -17.3 c 0,-8.1 6.8,-14.7 15,-14.7 z"
   id="path37" />
			<polyline
   style="fill:none;stroke:#6a51b7;stroke-width:10"
   points="0,240 1067,240"
   id="polyline39" />
		</g>
		<g
   id="SW1372">
			<polygon
   transform="translate(1372,-5)"
   points="4,200 4,450 0,450 0,200 "
   style="fill:#000000;stroke:none"
   id="polygon42" />
			<path
   transform="translate(1372)"
   style="fill:#3e3d97"
   d="m 15,423.9 h 36.4 c 8.2,0 14.6,6.6 14.6,14.7 v 17.2 c 0,8.1 -11,13.3 -16.7,14.7 -5.6,1.4 -7,4.1 -6.9,7.5 l 2.5,67 c 0.2,4.3 4.5,8.5 8.7,9.3 l 40.6,9.2 c 3,0.6 5.8,3.8 5.8,6.7 v 9.5 H -33.6 v -10.3 c 0,-2.6 2.6,-5.3 5.2,-5.8 l 41.7,-9.3 c 4.2,-0.9 8,-5.6 8.2,-9.8 L 24,478 c 0,-3.4 -1.4,-6.1 -7,-7.5 -5.6,-1.4 -17,-6.6 -17,-14.6 v -17.3 c 0,-8.1 6.8,-14.7 15,-14.7 z"
   id="path44" />
			<polyline
   style="fill:none;stroke:#3e3d97;stroke-width:10"
   points="0,200 1372,200"
   id="polyline46" />
		</g>
		<g
   id="SW1435">
			<polygon
   transform="translate(1435,-7)"
   points="4,160 4,450 0,450 0,160 "
   style="fill:#000000;stroke:none"
   id="polygon49" />
			<path
   transform="translate(1435)"
   style="fill:#568dd0"
   d="m 15,423.9 h 36.4 c 8.2,0 14.6,6.6 14.6,14.7 v 17.2 c 0,8.1 -11,13.3 -16.7,14.7 -5.6,1.4 -7,4.1 -6.9,7.5 l 2.5,67 c 0.2,4.3 4.5,8.5 8.7,9.3 l 40.6,9.2 c 3,0.6 5.8,3.8 5.8,6.7 v 9.5 H -33.6 v -10.3 c 0,-2.6 2.6,-5.3 5.2,-5.8 l 41.7,-9.3 c 4.2,-0.9 8,-5.6 8.2,-9.8 L 24,478 c 0,-3.4 -1.4,-6.1 -7,-7.5 -5.6,-1.4 -17,-6.6 -17,-14.6 v -17.3 c 0,-8.1 6.8,-14.7 15,-14.7 z"
   id="path51" />
			<polyline
   style="fill:none;stroke:#568dd0;stroke-width:14"
   points="0,160 1435,160"
   id="polyline53" />
		</g>
		<g
   id="SW1520">
			<polygon
   transform="translate(1520,-5)"
   points="4,120 4,450 0,450 0,120 "
   style="fill:#000000;stroke:none"
   id="polygon56" />
			<path
   transform="translate(1520)"
   style="fill:#305c31"
   d="m 15,423.9 h 36.4 c 8.2,0 14.6,6.6 14.6,14.7 v 17.2 c 0,8.1 -11,13.3 -16.7,14.7 -5.6,1.4 -7,4.1 -6.9,7.5 l 2.5,67 c 0.2,4.3 4.5,8.5 8.7,9.3 l 40.6,9.2 c 3,0.6 5.8,3.8 5.8,6.7 v 9.5 H -33.6 v -10.3 c 0,-2.6 2.6,-5.3 5.2,-5.8 l 41.7,-9.3 c 4.2,-0.9 8,-5.6 8.2,-9.8 L 24,478 c 0,-3.4 -1.4,-6.1 -7,-7.5 -5.6,-1.4 -17,-6.6 -17,-14.6 v -17.3 c 0,-8.1 6.8,-14.7 15,-14.7 z"
   id="path58" />
			<polyline
   style="fill:none;stroke:#305c31;stroke-width:10"
   points="0,120 1520,120"
   id="polyline60" />
		</g>
		<g
   id="SW1600">
			<polygon
   transform="translate(1600,-5)"
   points="4,80 4,450 0,450 0,80 "
   style="fill:#000000;stroke:none"
   id="polygon63" />
			<path
   transform="translate(1600)"
   style="fill:#5abf56"
   d="m 15,423.9 h 36.4 c 8.2,0 14.6,6.6 14.6,14.7 v 17.2 c 0,8.1 -11,13.3 -16.7,14.7 -5.6,1.4 -7,4.1 -6.9,7.5 l 2.5,67 c 0.2,4.3 4.5,8.5 8.7,9.3 l 40.6,9.2 c 3,0.6 5.8,3.8 5.8,6.7 v 9.5 H -33.6 v -10.3 c 0,-2.6 2.6,-5.3 5.2,-5.8 l 41.7,-9.3 c 4.2,-0.9 8,-5.6 8.2,-9.8 L 24,478 c 0,-3.4 -1.4,-6.1 -7,-7.5 -5.6,-1.4 -17,-6.6 -17,-14.6 v -17.3 c 0,-8.1 6.8,-14.7 15,-14.7 z"
   id="path65" />
			<polyline
   style="fill:none;stroke:#5abf56;stroke-width:10"
   points="0,80 1600,80"
   id="polyline67" />
		</g>
		<g
   id="SW1668">
			<polygon
   transform="translate(1668,-5)"
   points="4,40 4,450 0,450 0,40 "
   style="fill:#000000;stroke:none"
   id="polygon70" />
			<path
   transform="translate(1668)"
   style="fill:#83dc76"
   d="m 15,423.9 h 36.4 c 8.2,0 14.6,6.6 14.6,14.7 v 17.2 c 0,8.1 -11,13.3 -16.7,14.7 -5.6,1.4 -7,4.1 -6.9,7.5 l 2.5,67 c 0.2,4.3 4.5,8.5 8.7,9.3 l 40.6,9.2 c 3,0.6 5.8,3.8 5.8,6.7 v 9.5 H -33.6 v -10.3 c 0,-2.6 2.6,-5.3 5.2,-5.8 l 41.7,-9.3 c 4.2,-0.9 8,-5.6 8.2,-9.8 L 24,478 c 0,-3.4 -1.4,-6.1 -7,-7.5 -5.6,-1.4 -17,-6.6 -17,-14.6 v -17.3 c 0,-8.1 6.8,-14.7 15,-14.7 z"
   id="path72" />
			<polyline
   style="fill:none;stroke:#83dc76;stroke-width:10"
   points="0,40 1668,40"
   id="polyline74" />
		</g>
		<g
   id="SW1676">
			<polygon
   transform="translate(1676,-5)"
   points="4,0 4,450 0,450 0,0 "
   style="fill:#000000;stroke:none"
   id="polygon77" />
			<path
   transform="translate(1676)"
   style="fill:#bbdf94"
   d="m 15,423.9 h 36.4 c 8.2,0 14.6,6.6 14.6,14.7 v 17.2 c 0,8.1 -11,13.3 -16.7,14.7 -5.6,1.4 -7,4.1 -6.9,7.5 l 2.5,67 c 0.2,4.3 4.5,8.5 8.7,9.3 l 40.6,9.2 c 3,0.6 5.8,3.8 5.8,6.7 v 9.5 H -33.6 v -10.3 c 0,-2.6 2.6,-5.3 5.2,-5.8 l 41.7,-9.3 c 4.2,-0.9 8,-5.6 8.2,-9.8 L 24,478 c 0,-3.4 -1.4,-6.1 -7,-7.5 -5.6,-1.4 -17,-6.6 -17,-14.6 v -17.3 c 0,-8.1 6.8,-14.7 15,-14.7 z"
   id="path79" />
			<polyline
   style="fill:none;stroke:#bbdf94;stroke-width:10"
   points="0,0 1676,0"
   id="polyline81" />
		</g>
	</g>
	
<text
   xml:space="preserve"
   style="font-style:normal;font-weight:normal;font-size:36px;line-height:1.05;font-family:sans-serif;fill:#000000;fill-opacity:1;stroke:none"
   x="26.688986"
   y="46.582748"
   id="text13277"><tspan
     sodipodi:role="line"
     x="26.688986"
     y="46.582748"
     id="tspan18625"
     style="font-style:normal;font-variant:normal;font-weight:normal;font-stretch:normal;font-size:36px;font-family:'Courier New', monospace;-inkscape-font-specification:'Courier New, monospace'"><tspan
   style="font-weight:bold"
   id="tspan150595">Gauge's name</tspan> | <tspan
   style="font-weight:bold"
   id="tspan150597">SI[mm]</tspan> | <tspan
   style="font-weight:bold"
   id="tspan150599">Imperial</tspan></tspan><tspan
     sodipodi:role="line"
     x="26.688986"
     y="84.846916"
     id="tspan18827"
     style="font-style:normal;font-variant:normal;font-weight:normal;font-stretch:normal;font-size:36px;font-family:'Courier New', monospace;-inkscape-font-specification:'Courier New, monospace'">      Indian |  1676  | 5'6&quot;</tspan><tspan
     sodipodi:role="line"
     x="26.688986"
     y="122.82734"
     id="tspan18829"
     style="font-style:normal;font-variant:normal;font-weight:normal;font-stretch:normal;font-size:36px;font-family:'Courier New', monospace;-inkscape-font-specification:'Courier New, monospace'">     Iberian |  1668  | 5'5&quot;</tspan><tspan
     sodipodi:role="line"
     x="26.688986"
     y="160.80777"
     id="tspan18831"
     style="font-style:normal;font-variant:normal;font-weight:normal;font-stretch:normal;font-size:36px;font-family:'Courier New', monospace;-inkscape-font-specification:'Courier New, monospace'">       Irish |  1600  | 5'3&quot;</tspan><tspan
     sodipodi:role="line"
     x="26.688986"
     y="199.51172"
     id="tspan18833"
     style="font-style:normal;font-variant:normal;font-weight:normal;font-stretch:normal;font-size:36px;font-family:'Courier New', monospace;-inkscape-font-specification:'Courier New, monospace'">     Russian |  1520  | 4'11⅚&quot;</tspan><tspan
     sodipodi:role="line"
     x="26.688986"
     y="237.49214"
     id="tspan19033"
     style="font-style:normal;font-variant:normal;font-weight:normal;font-stretch:normal;font-size:36px;font-family:'Courier New', monospace;-inkscape-font-specification:'Courier New, monospace'">    Standard |  1435  | 4'8½&quot;</tspan><tspan
     sodipodi:role="line"
     x="26.688986"
     y="275.47256"
     id="tspan19035"
     style="font-style:normal;font-variant:normal;font-weight:normal;font-stretch:normal;font-size:36px;font-family:'Courier New', monospace;-inkscape-font-specification:'Courier New, monospace'">      Scotch |  1372  | 4'6&quot;</tspan><tspan
     sodipodi:role="line"
     x="26.688986"
     y="313.453"
     id="tspan19037"
     style="font-style:normal;font-variant:normal;font-weight:normal;font-stretch:normal;font-size:36px;font-family:'Courier New', monospace;-inkscape-font-specification:'Courier New, monospace'">        Cape |  1067  | 3'6&quot;</tspan><tspan
     sodipodi:role="line"
     x="26.688986"
     y="351.43344"
     id="tspan19171"
     style="font-style:normal;font-variant:normal;font-weight:normal;font-stretch:normal;font-size:36px;font-family:'Courier New', monospace;-inkscape-font-specification:'Courier New, monospace'">       Metre |  1000  | 3'3⅜&quot;</tspan><tspan
     sodipodi:role="line"
     x="26.688986"
     y="389.41385"
     id="tspan19173"
     style="font-style:normal;font-variant:normal;font-weight:normal;font-stretch:normal;font-size:36px;font-family:'Courier New', monospace;-inkscape-font-specification:'Courier New, monospace'">  Three foot |   914  | 3'</tspan><tspan
     sodipodi:role="line"
     x="26.688986"
     y="427.39429"
     id="tspan19175"
     style="font-style:normal;font-variant:normal;font-weight:normal;font-stretch:normal;font-size:36px;font-family:'Courier New', monospace;-inkscape-font-specification:'Courier New, monospace'">      762 mm |   762  | 2'6&quot;</tspan><tspan
     sodipodi:role="line"
     x="26.688986"
     y="465.37473"
     id="tspan19177"
     style="font-style:normal;font-variant:normal;font-weight:normal;font-stretch:normal;font-size:36px;font-family:'Courier New', monospace;-inkscape-font-specification:'Courier New, monospace'">      600 mm |   600  | 1'11⅝&quot;</tspan></text></svg>
