<?xml version="1.0" encoding="UTF-8" standalone="no"?>
<!-- Created with Inkscape (http://www.inkscape.org/) -->

<svg
   width="257.54276mm"
   height="147.02911mm"
   viewBox="0 0 257.54276 147.02912"
   version="1.1"
   id="svg1"
   xml:space="preserve"
   inkscape:version="1.4.2 (f4327f4, 2025-05-13)"
   sodipodi:docname="data_versioning_flow_schema.svg"
   xmlns:inkscape="http://www.inkscape.org/namespaces/inkscape"
   xmlns:sodipodi="http://sodipodi.sourceforge.net/DTD/sodipodi-0.dtd"
   xmlns="http://www.w3.org/2000/svg"
   xmlns:svg="http://www.w3.org/2000/svg"><sodipodi:namedview
     id="namedview1"
     pagecolor="#ffffff"
     bordercolor="#111111"
     borderopacity="1"
     inkscape:showpageshadow="0"
     inkscape:pageopacity="0"
     inkscape:pagecheckerboard="1"
     inkscape:deskcolor="#d1d1d1"
     inkscape:document-units="mm"
     inkscape:zoom="0.71891836"
     inkscape:cx="353.30855"
     inkscape:cy="309.49272"
     inkscape:window-width="1920"
     inkscape:window-height="1009"
     inkscape:window-x="1912"
     inkscape:window-y="877"
     inkscape:window-maximized="1"
     inkscape:current-layer="layer1" /><defs
     id="defs1"><inkscape:path-effect
       effect="spiro"
       id="path-effect15"
       is_visible="true"
       lpeversion="1" /><marker
       style="overflow:visible"
       id="RoundedArrow"
       refX="0"
       refY="0"
       orient="auto-start-reverse"
       inkscape:stockid="Rounded arrow"
       markerWidth="1"
       markerHeight="1"
       viewBox="0 0 1 1"
       inkscape:isstock="true"
       inkscape:collect="always"
       preserveAspectRatio="xMidYMid"><path
         transform="scale(0.7)"
         d="m -0.21114562,-4.1055728 6.42229122,3.21114561 a 1,1 90 0 1 0,1.78885438 L -0.21114562,4.1055728 A 1.236068,1.236068 31.717474 0 1 -2,3 v -6 a 1.236068,1.236068 148.28253 0 1 1.78885438,-1.1055728 z"
         style="fill:context-stroke;fill-rule:evenodd;stroke:none"
         id="path8" /></marker><inkscape:path-effect
       effect="spiro"
       id="path-effect3"
       is_visible="true"
       lpeversion="1" /><marker
       style="overflow:visible"
       id="RoundedArrow-6"
       refX="0"
       refY="0"
       orient="auto-start-reverse"
       inkscape:stockid="Rounded arrow"
       markerWidth="1"
       markerHeight="1"
       viewBox="0 0 1 1"
       inkscape:isstock="true"
       inkscape:collect="always"
       preserveAspectRatio="xMidYMid"><path
         transform="scale(0.7)"
         d="m -0.21114562,-4.1055728 6.42229122,3.21114561 a 1,1 90 0 1 0,1.78885438 L -0.21114562,4.1055728 A 1.236068,1.236068 31.717474 0 1 -2,3 v -6 a 1.236068,1.236068 148.28253 0 1 1.78885438,-1.1055728 z"
         style="fill:context-stroke;fill-rule:evenodd;stroke:none"
         id="path8-1" /></marker><inkscape:path-effect
       effect="spiro"
       id="path-effect3-4"
       is_visible="true"
       lpeversion="1" /></defs><g
     inkscape:label="Capa 1"
     inkscape:groupmode="layer"
     id="layer1"
     transform="translate(24.028008,-2.2081783)"><rect
       style="fill:#ffffff;fill-opacity:1;stroke-width:0.287452;stroke-linecap:round;stroke-linejoin:round;paint-order:markers stroke fill"
       id="rect1"
       width="257.54276"
       height="147.02911"
       x="-24.028008"
       y="2.2081783" /><rect
       style="fill:#9c9c9c;fill-opacity:0.5;stroke:#000000;stroke-width:1;stroke-linecap:round;stroke-linejoin:round;stroke-dasharray:2;stroke-dashoffset:0;stroke-opacity:1;paint-order:markers stroke fill"
       id="rect7"
       width="188.93156"
       height="68.442154"
       x="10.277587"
       y="12.274862"
       inkscape:label="rect_db" /><g
       id="g15"
       transform="matrix(1.2939012,0,0,1.2939012,-3.4376816,7.9231241)"><path
         style="fill:#9c9c9c;fill-opacity:1;stroke:#000000;stroke-width:0.264583px;stroke-linecap:butt;stroke-linejoin:miter;stroke-opacity:1"
         d="m -16.915361,-17.452098 -2.472245,-1.106005 -3.496925,-0.406619 -3.383072,0.601797 -2.439715,1.463829 -0.553003,0.992151 0.178912,10.60463 1.301183,1.6752712 2.602362,0.9108271 4.098722,0.2602364 2.8626,-0.7807089 1.919243,-1.3987703 0.520472,-1.3662405 -0.130118,-10.181746 z"
         id="path15"
         inkscape:path-effect="#path-effect15"
         inkscape:original-d="m -16.915361,-17.452098 c 0,0 -2.472245,-1.106005 -2.472245,-1.106005 0,0 -3.496925,-0.406619 -3.496925,-0.406619 0,0 -3.383072,0.601797 -3.383072,0.601797 0,0 -2.439715,1.463829 -2.439715,1.463829 0,0 -0.553003,0.992151 -0.553003,0.992151 0,0 0.178912,10.60463 0.178912,10.60463 0,0 1.301183,1.6752712 1.301183,1.6752712 0,0 2.602362,0.9108271 2.602362,0.9108271 0,0 4.098722,0.2602364 4.098722,0.2602364 0,0 2.8626,-0.7807089 2.8626,-0.7807089 0,0 1.919243,-1.3987703 1.919243,-1.3987703 0,0 0.520472,-1.3662405 0.520472,-1.3662405 0,0 -0.130118,-10.181746 -0.130118,-10.181746 z"
         transform="translate(35.131903,17.69607)" /><path
         class="st0"
         d="m 19.491852,1.0872458 c -0.197069,-0.45348295 -0.537419,-0.84396295 -0.969088,-1.18058695 -0.649638,-0.504562 -1.516058,-0.898362 -2.529384,-1.17506505 -1.013393,-0.275789 -2.174909,-0.430755 -3.411182,-0.430755 -1.884049,0.0012 -3.5928746,0.357286 -4.8724706,0.96109405 -0.639815,0.303462 -1.1751,0.669318 -1.568629,1.108066 -0.196154,0.219493 -0.356337,0.4587 -0.468522,0.71728095 -0.111914,0.258582 -0.174307,0.537419 -0.174036,0.822759 V 12.034043 c -2.71e-4,0.285307 0.06212,0.564483 0.174036,0.82276 0.197069,0.453483 0.537419,0.843929 0.969088,1.180891 0.649672,0.504563 1.516025,0.898397 2.529418,1.1751 1.0133246,0.275721 2.1748766,0.430416 3.4111156,0.430687 1.884386,-0.0016 3.59284,-0.357218 4.872469,-0.961399 0.639781,-0.303429 1.175066,-0.669013 1.568595,-1.108032 0.196189,-0.219222 0.356337,-0.458429 0.468556,-0.717281 0.111914,-0.258243 0.174307,-0.537453 0.174002,-0.82276 V 1.9100058 c 3.39e-4,-0.285341 -0.06205,-0.564178 -0.173968,-0.82276 z M 18.688773,12.034043 c -3.05e-4,0.145414 -0.03011,0.28717 -0.09376,0.435023 -0.110695,0.257328 -0.333609,0.534031 -0.672739,0.797524 -0.506967,0.396307 -1.265776,0.753897 -2.185647,1.003503 -0.919905,0.250248 -2.000298,0.396611 -3.154464,0.396306 -1.758281,0.0016 -3.3471986,-0.341569 -4.4543166,-0.867335 -0.55405,-0.261326 -0.984466,-0.568175 -1.258087,-0.875939 -0.137725,-0.153713 -0.236733,-0.306816 -0.30038,-0.454093 -0.06368,-0.147887 -0.09349,-0.289609 -0.09379,-0.435023 v -1.671938 c 0.565126,0.516553 1.358654,0.929118 2.307723,1.234138 1.094212,0.349563 2.3977906,0.550324 3.7988526,0.550629 1.868399,-9.14e-4 3.562152,-0.355422 4.820238,-0.949408 0.505748,-0.239816 0.938027,-0.52055 1.286337,-0.839965 v 1.676578 z m 0,-2.8534727 c -0.06947,0.149106 -0.168786,0.298551 -0.302819,0.449486 -0.432889,0.4876257 -1.216593,0.9466637 -2.227785,1.2682467 -1.010886,0.323414 -2.245296,0.515876 -3.575971,0.515605 -1.773964,9.15e-4 -3.3779546,-0.343465 -4.5065816,-0.878986 -0.564787,-0.266576 -1.008143,-0.5804707 -1.297108,-0.9048657 -0.134066,-0.150935 -0.23338,-0.30038 -0.302886,-0.449147 V 6.9875378 c 0.565126,0.51652 1.358654,0.9291195 2.307723,1.2341065 1.094212,0.349257 2.3977906,0.550019 3.7988526,0.550358 1.868398,-9.49e-4 3.562151,-0.355389 4.820238,-0.949442 0.505748,-0.2398175 0.938027,-0.5201785 1.286337,-0.8396285 z m 0,-3.3745675 c -0.06947,0.149106 -0.168786,0.298517 -0.302819,0.449181 -0.432889,0.487593 -1.216593,0.946936 -2.227785,1.268215 -1.010886,0.3234475 -2.245296,0.5159105 -3.575971,0.5156055 -1.773964,9.48e-4 -3.3779546,-0.3433985 -4.5065816,-0.8786835 -0.564787,-0.266575 -1.008143,-0.580775 -1.297108,-0.905137 -0.134066,-0.150664 -0.23338,-0.300075 -0.302886,-0.449181 v -2.19337 c 0.565126,0.516824 1.358654,0.929119 2.307723,1.23441 1.094212,0.349563 2.3977906,0.550324 3.7988526,0.550324 1.868398,-9.14e-4 3.562151,-0.355118 4.820238,-0.949408 0.505748,-0.239816 0.938027,-0.520211 1.286337,-0.839662 z m 0,-3.374905 c -0.06947,0.14914 -0.168786,0.298856 -0.302819,0.44952 -0.432889,0.487931 -1.216593,0.946935 -2.227785,1.268553 -1.010886,0.323413 -2.245296,0.515876 -3.575971,0.515605 -1.773964,9.15e-4 -3.3779546,-0.343466 -4.5065816,-0.878987 -0.564787,-0.266881 -1.008143,-0.58081 -1.297108,-0.905137 -0.134066,-0.150665 -0.23338,-0.30038 -0.302886,-0.449216 v -0.52143 c 3.39e-4,-0.145448 0.03015,-0.286865 0.09379,-0.434752 0.110695,-0.257667 0.333575,-0.53403195 0.672705,-0.79782895 0.507002,-0.396307 1.265776,-0.753863 2.185647,-1.003198 0.9199056,-0.250587 2.0002646,-0.396611 3.1544316,-0.396306 1.758313,-0.0016 3.347231,0.341602 4.454349,0.867335 0.554016,0.26102 0.984127,0.56787 1.258087,0.87593895 0.137725,0.153713 0.2367,0.306545 0.30038,0.454093 0.06361,0.147886 0.09342,0.289304 0.09376,0.434751 z"
         id="path1-4"
         inkscape:label="db"
         style="fill:#000000;fill-opacity:1;stroke:none;stroke-width:1;stroke-dasharray:none;stroke-opacity:1" /></g><path
       d="m 34.875798,26.342669 a 4.7774791,4.7774791 0 0 1 4.777478,-4.777479 h 28.664873 a 4.7774791,4.7774791 0 0 1 4.777483,4.777479 v 28.664875 a 4.7774791,4.7774791 0 0 1 -4.777483,4.777478 H 39.653276 a 4.7774791,4.7774791 0 0 1 -4.777478,-4.777478 z m 35.831093,4.77748 h -9.554958 v 7.166218 h 9.554958 z m 0,9.554958 h -9.554958 v 7.166218 h 9.554958 z m 0,9.554957 h -9.554958 v 7.166218 h 7.166216 a 2.3887395,2.3887395 0 0 0 2.388742,-2.388738 z m -11.943698,7.166218 v -7.166218 h -9.554959 v 7.166218 z m -11.943697,0 v -7.166218 h -9.554959 v 4.77748 a 2.3887395,2.3887395 0 0 0 2.388739,2.388738 z m -9.554959,-9.554957 h 9.554959 v -7.166218 h -9.554959 z m 0,-9.554958 h 9.554959 v -7.166218 h -9.554959 z m 11.943697,-7.166218 v 7.166218 h 9.554959 v -7.166218 z m 9.554959,9.554958 h -9.554959 v 7.166218 h 9.554959 z"
       id="path1-1-5"
       style="fill:#000000;stroke-width:1.28898;stroke-dasharray:none"
       inkscape:label="table" /><g
       id="g6"
       inkscape:label="history"
       transform="matrix(0.6444909,0,0,0.6444909,20.958825,15.602071)"><path
         d="m 171.98713,16.665242 a 7.4127952,7.4127952 0 0 1 7.4128,-7.4127941 h 44.47677 a 7.4127952,7.4127952 0 0 1 7.4128,7.4127941 v 44.476773 a 7.4127952,7.4127952 0 0 1 -7.4128,7.412794 h -44.47677 a 7.4127952,7.4127952 0 0 1 -7.4128,-7.412794 z m 55.59597,7.412797 h -14.82559 v 11.119192 h 14.82559 z m 0,14.825591 h -14.82559 v 11.119192 h 14.82559 z m 0,14.825588 H 212.75751 V 64.84841 h 11.11919 a 3.7063976,3.7063976 0 0 0 3.7064,-3.706395 z M 209.05111,64.84841 V 53.729218 H 194.22552 V 64.84841 Z m -18.53199,0 V 53.729218 h -14.82559 v 7.412797 a 3.7063976,3.7063976 0 0 0 3.7064,3.706395 z M 175.69353,50.022822 h 14.82559 V 38.90363 h -14.82559 z m 0,-14.825591 h 14.82559 V 24.078039 h -14.82559 z m 18.53199,-11.119192 v 11.119192 h 14.82559 V 24.078039 Z m 14.82559,14.825591 h -14.82559 v 11.119192 h 14.82559 z"
         id="path1-1-5-5"
         style="fill:#000000;stroke-width:2;stroke-dasharray:none"
         inkscape:label="table" /><g
         id="g5"
         transform="translate(-9.0167285,-24.683607)"><rect
           style="fill:#bebebe;fill-opacity:1;stroke:none;stroke-width:2.27632;stroke-linecap:round;stroke-linejoin:round;stroke-dasharray:none;stroke-opacity:1;paint-order:markers stroke fill"
           id="rect5"
           width="9.4198914"
           height="8.9896383"
           x="181.81813"
           y="85.413841"
           rx="0"
           ry="0" /><path
           d="m 180.095,81.900251 v -2.558512 c 0,-4.239084 2.17121,-7.675533 6.4103,-7.675533 4.23908,0 6.41029,3.436449 6.41029,7.675533 v 2.558512 h 1.27925 c 1.41303,0 2.55851,1.145485 2.55851,2.558513 v 10.234049 c 0,1.413027 -1.14548,2.558512 -2.55851,2.558512 h -15.3791 c -1.41303,0 -2.55851,-1.145485 -2.55851,-2.558512 V 84.458764 c 0,-1.407182 1.15133,-2.558513 2.55851,-2.558513 z m 5.13104,8.609394 v 2.903912 h 2.55851 v -2.903912 c 2.26759,-1.309191 1.33768,-4.773806 -1.27925,-4.773806 -2.61695,0 -3.54685,3.464615 -1.27926,4.773806 z m -1.29327,-11.167906 v 2.558512 h 5.14505 v -2.558512 c 0,-5.117022 -5.14505,-5.117022 -5.14505,0 z"
           id="path1-85"
           inkscape:label="lock"
           style="fill:#f6e542;fill-opacity:1;stroke:none;stroke-width:1.27926;stroke-opacity:1"
           sodipodi:nodetypes="cssscsssssssscccccscsccss" /></g><g
         style="fill:#bebebe;fill-opacity:1;stroke:#f6e542;stroke-opacity:1"
         id="g1"
         transform="matrix(1.5068038,0,0,1.5068038,208.80729,41.693513)"
         inkscape:label="clock"><circle
           cx="12"
           cy="12"
           r="9"
           stroke="#000000"
           stroke-width="2"
           id="circle1"
           style="fill:#bebebe;fill-opacity:1;stroke:#f6e542;stroke-opacity:1"
           inkscape:label="circle" /><path
           d="m 12,8 v 4 l 3,3"
           stroke="#000000"
           stroke-width="2"
           stroke-linecap="round"
           id="path1"
           style="fill:#bebebe;fill-opacity:1;stroke:#f6e542;stroke-opacity:1"
           inkscape:label="path" /></g></g><g
       id="g7"
       transform="matrix(0.6444909,0,0,0.6444909,27.718792,4.5623785)"
       inkscape:label="user_edit"><g
         id="g2"
         inkscape:label="user"
         transform="matrix(0.27977037,0,0,0.27977037,25.070871,120.33469)"><path
           d="m 0.774976,230.93854 c 21.918745,0 39.687501,-17.76875 39.687501,-39.6875 0,-21.91874 -17.768756,-39.6875 -39.687501,-39.6875 -21.918745,0 -39.687501,17.76876 -39.687501,39.6875 0,21.91875 17.768756,39.6875 39.687501,39.6875 z"
           fill="#000000"
           id="path1-5"
           inkscape:label="head"
           style="stroke-width:13.2292" /><path
           d="m 80.149978,294.43854 c 0,-21.9194 -17.768094,-39.6875 -39.687501,-39.6875 h -79.375002 c -21.918745,0 -39.687501,17.7681 -39.687501,39.6875 v 39.6875 H 80.149978 Z"
           fill="#000000"
           id="path2"
           inkscape:label="body"
           style="stroke-width:13.2292" /></g><path
         d="m 45.117884,192.39927 3.993077,3.99311 m -21.640006,17.8891 0.06699,-0.46899 c 0.237055,-1.65926 0.355588,-2.48896 0.625195,-3.2636 0.239236,-0.6874 0.566046,-1.34105 0.972381,-1.94473 0.457918,-0.68047 1.05055,-1.27314 2.235814,-2.45833 l 16.444331,-16.44445 c 1.102744,-1.10266 2.890478,-1.10266 3.993211,0 1.1026,1.10268 1.1026,2.89045 0,3.99313 L 35.062702,210.4406 c -1.075276,1.07536 -1.612909,1.61296 -2.225295,2.04044 -0.543565,0.37949 -1.129798,0.69389 -1.74668,0.93671 -0.694973,0.27362 -1.440337,0.42397 -2.93092,0.72468 z"
         stroke="#000000"
         stroke-width="2.82356"
         stroke-linecap="round"
         stroke-linejoin="round"
         id="path1-8"
         style="fill:none;stroke:#396ae6;stroke-width:2;stroke-dasharray:none;stroke-opacity:1"
         inkscape:label="pen" /></g><path
       d="m 70.948357,116.98467 h -4.70192 c -1.097212,0 -1.645828,0 -2.064906,0.21354 -0.36864,0.18782 -0.668349,0.48753 -0.85617,0.85617 -0.213536,0.41908 -0.213536,0.96769 -0.213536,2.06491 v 11.36297 c 0,1.09721 0,1.64586 0.213536,2.06492 0.187821,0.36861 0.48753,0.66836 0.85617,0.85614 0.419078,0.21355 0.967694,0.21355 2.064906,0.21355 h 7.444704 c 1.097213,0 1.645867,0 2.064925,-0.21355 0.368611,-0.18778 0.66836,-0.48753 0.856141,-0.85614 0.213546,-0.41906 0.213546,-0.96771 0.213546,-2.06492 v -8.62019 m -5.877396,-5.8774 5.877396,5.8774 m -5.877396,-5.8774 v 4.3101 c 0,0.54861 0,0.82291 0.106773,1.03245 0.09394,0.18432 0.243716,0.33417 0.428068,0.42809 0.209529,0.10676 0.483807,0.10676 1.032465,0.10676 h 4.31009"
       stroke="#000000"
       stroke-width="4.20973"
       stroke-linecap="round"
       stroke-linejoin="round"
       id="path1-7"
       style="fill:#9c9c9c;stroke-width:1.16345;stroke-dasharray:none;fill-opacity:1"
       sodipodi:nodetypes="csccssscssccsccccsccsc"
       inkscape:label="file" /><path
       d="m 83.497906,43.972205 h -4.701904 c -1.097212,0 -1.645828,0 -2.064906,0.21354 -0.36864,0.18782 -0.668349,0.48753 -0.85617,0.85617 -0.213536,0.41908 -0.213536,0.96769 -0.213536,2.06491 v 11.36297 c 0,1.09721 0,1.64586 0.213536,2.06492 0.187821,0.36861 0.48753,0.66836 0.85617,0.85614 0.419078,0.21355 0.967694,0.21355 2.064906,0.21355 h 7.444669 c 1.097201,0 1.645858,0 2.064918,-0.21355 0.368607,-0.18778 0.668354,-0.48753 0.856134,-0.85614 0.21354,-0.41906 0.21354,-0.96771 0.21354,-2.06492 v -8.62019 m -5.877357,-5.8774 5.877357,5.8774 m -5.877357,-5.8774 v 4.3101 c 0,0.54861 0,0.82291 0.106767,1.03245 0.0939,0.18432 0.24372,0.33417 0.42807,0.42809 0.209527,0.10676 0.483807,0.10676 1.032454,0.10676 h 4.310066"
       stroke="#000000"
       stroke-width="4.20973"
       stroke-linecap="round"
       stroke-linejoin="round"
       id="path1-7-7"
       style="fill:#9c9c9c;stroke-width:1.16345;stroke-dasharray:none;fill-opacity:0.5"
       sodipodi:nodetypes="csccssscssccsccccsccsc"
       inkscape:label="file_history" /><text
       xml:space="preserve"
       style="font-weight:bold;font-size:6.82084px;line-height:1.25;font-family:Arial;-inkscape-font-specification:'Arial Bold';stroke-width:0.170521"
       x="76.054398"
       y="33.152435"
       id="text2-9"
       inkscape:label="text_history"><tspan
         sodipodi:role="line"
         id="tspan2-2"
         style="font-style:normal;font-variant:normal;font-weight:normal;font-stretch:normal;font-size:6.82084px;font-family:Arial;-inkscape-font-specification:Arial;stroke-width:0.170521"
         x="76.054398"
         y="33.152435">Old data versions</tspan></text><path
       style="fill:none;stroke:#000000;stroke-width:3;stroke-linecap:round;stroke-linejoin:miter;stroke-dasharray:none;stroke-opacity:1;marker-end:url(#RoundedArrow)"
       d="M 55.690571,132.20005 V 81.714204"
       id="path3"
       inkscape:path-effect="#path-effect3"
       inkscape:original-d="m 55.690571,132.20005 c 0,-17.1756 0,-33.830722 0,-50.485846"
       transform="matrix(0.6444909,0,0,0.6444909,18.093648,21.161715)"
       inkscape:label="arrow_to_table" /><path
       style="fill:none;stroke:#000000;stroke-width:3;stroke-linecap:round;stroke-linejoin:miter;stroke-dasharray:none;stroke-opacity:1;marker-end:url(#RoundedArrow-6)"
       d="M 55.690571,132.20005 V 81.714204"
       id="path3-2"
       inkscape:path-effect="#path-effect3-4"
       inkscape:original-d="m 55.690571,132.20005 c 0,-17.1756 0,-33.830722 0,-50.485846"
       transform="matrix(0,0.6444909,-0.6444909,0,167.46571,4.7830393)"
       inkscape:label="arrow_to_history" /><text
       xml:space="preserve"
       style="font-weight:bold;font-size:6.82084px;line-height:1.25;font-family:Arial;-inkscape-font-specification:'Arial Bold';stroke-width:0.170521"
       x="81.156868"
       y="89.988152"
       id="text7"
       inkscape:label="text_modify"><tspan
         sodipodi:role="line"
         id="tspan7"
         style="font-style:normal;font-variant:normal;font-weight:normal;font-stretch:normal;font-size:6.82084px;font-family:Arial;-inkscape-font-specification:Arial;text-align:center;text-anchor:middle;stroke-width:0.170521"
         x="81.156868"
         y="89.988152">Update / Delete</tspan><tspan
         sodipodi:role="line"
         style="font-style:normal;font-variant:normal;font-weight:normal;font-stretch:normal;font-size:6.82084px;font-family:Arial;-inkscape-font-specification:Arial;text-align:center;text-anchor:middle;stroke-width:0.170521"
         x="81.156868"
         y="98.514198"
         id="tspan15">a table record</tspan></text><text
       xml:space="preserve"
       style="font-weight:bold;font-size:5.64444px;line-height:1.35;font-family:Arial;-inkscape-font-specification:'Arial Bold';fill:#f1f1f1;fill-opacity:1;stroke-width:0.264583"
       x="54.033516"
       y="20.465393"
       id="text16"
       inkscape:label="text_table"><tspan
         sodipodi:role="line"
         id="tspan16"
         style="font-style:normal;font-variant:normal;font-weight:normal;font-stretch:normal;font-size:5.29167px;line-height:1.35;font-family:Arial;-inkscape-font-specification:Arial;text-align:center;text-anchor:middle;fill:#f1f1f1;fill-opacity:1;stroke-width:0.264583"
         x="54.033516"
         y="20.465393">(actual data)</tspan><tspan
         sodipodi:role="line"
         style="font-style:normal;font-variant:normal;font-weight:normal;font-stretch:normal;font-size:5.29167px;line-height:1.35;font-family:Arial;-inkscape-font-specification:Arial;text-align:center;text-anchor:middle;fill:#f1f1f1;fill-opacity:1;stroke-width:0.264583"
         x="54.033516"
         y="28.085388"
         id="tspan18">Temporal table</tspan></text><text
       xml:space="preserve"
       style="font-weight:bold;font-size:5.64444px;line-height:1.25;font-family:Arial;-inkscape-font-specification:'Arial Bold';fill:#f1f1f1;fill-opacity:1;stroke-width:0.265;stroke-dasharray:none"
       x="135.1192"
       y="27.949137"
       id="text16-3"
       inkscape:label="text_table_history"><tspan
         sodipodi:role="line"
         style="font-style:normal;font-variant:normal;font-weight:normal;font-stretch:normal;font-size:5.64444px;font-family:Arial;-inkscape-font-specification:Arial;fill:#f1f1f1;fill-opacity:1;stroke-width:0.265;stroke-dasharray:none"
         x="135.1192"
         y="27.949137"
         id="tspan17">History table</tspan></text></g><style
     type="text/css"
     id="style1">
	.st0{fill:#000000;}
</style></svg>
