<?xml version="1.0" encoding="us-ascii" standalone="no"?><svg xmlns="http://www.w3.org/2000/svg" xmlns:xlink="http://www.w3.org/1999/xlink" contentStyleType="text/css" height="854px" preserveAspectRatio="none" style="width:536px;height:854px;background:#FFFFFF;" version="1.1" viewBox="0 0 536 854" width="536px" zoomAndPan="magnify"><defs/><g><rect fill="#ADD8E6" height="105.3359" style="stroke:#000000;stroke-width:1.5;" width="509.5" x="10" y="315.4922"/><rect fill="#90EE90" height="59.0703" style="stroke:none;stroke-width:1.0;" width="509.5" x="10" y="361.7578"/><line style="stroke:#181818;stroke-width:0.5;stroke-dasharray:5.0,5.0;" x1="46" x2="46" y1="36.2969" y2="818.8203"/><line style="stroke:#181818;stroke-width:0.5;stroke-dasharray:5.0,5.0;" x1="480.5" x2="480.5" y1="36.2969" y2="818.8203"/><rect fill="#E2E2F0" height="30.2969" rx="2.5" ry="2.5" style="stroke:#181818;stroke-width:0.5;" width="53" x="20" y="5"/><text fill="#000000" font-family="sans-serif" font-size="14" lengthAdjust="spacing" textLength="39" x="27" y="24.9951">Client</text><rect fill="#E2E2F0" height="30.2969" rx="2.5" ry="2.5" style="stroke:#181818;stroke-width:0.5;" width="53" x="20" y="817.8203"/><text fill="#000000" font-family="sans-serif" font-size="14" lengthAdjust="spacing" textLength="39" x="27" y="837.8154">Client</text><rect fill="#E2E2F0" height="30.2969" rx="2.5" ry="2.5" style="stroke:#181818;stroke-width:0.5;" width="58" x="451.5" y="5"/><text fill="#000000" font-family="sans-serif" font-size="14" lengthAdjust="spacing" textLength="44" x="458.5" y="24.9951">Server</text><rect fill="#E2E2F0" height="30.2969" rx="2.5" ry="2.5" style="stroke:#181818;stroke-width:0.5;" width="58" x="451.5" y="817.8203"/><text fill="#000000" font-family="sans-serif" font-size="14" lengthAdjust="spacing" textLength="44" x="458.5" y="837.8154">Server</text><rect fill="#EEEEEE" height="3" style="stroke:#EEEEEE;stroke-width:1.0;" width="529.5" x="0" y="66.8633"/><line style="stroke:#000000;stroke-width:1.0;" x1="0" x2="529.5" y1="66.8633" y2="66.8633"/><line style="stroke:#000000;stroke-width:1.0;" x1="0" x2="529.5" y1="69.8633" y2="69.8633"/><rect fill="#EEEEEE" height="23.1328" style="stroke:#000000;stroke-width:2.0;" width="47" x="241.25" y="56.2969"/><text fill="#000000" font-family="sans-serif" font-size="13" font-weight="bold" lengthAdjust="spacing" textLength="28" x="247.25" y="72.3638">TCP</text><polygon fill="#181818" points="468.5,106.5625,478.5,110.5625,468.5,114.5625,472.5,110.5625" style="stroke:#181818;stroke-width:1.0;"/><line style="stroke:#181818;stroke-width:1.0;" x1="46.5" x2="474.5" y1="110.5625" y2="110.5625"/><text fill="#000000" font-family="sans-serif" font-size="13" lengthAdjust="spacing" textLength="26" x="53.5" y="105.4966">SYN</text><polygon fill="#181818" points="57.5,135.6953,47.5,139.6953,57.5,143.6953,53.5,139.6953" style="stroke:#181818;stroke-width:1.0;"/><line style="stroke:#181818;stroke-width:1.0;" x1="51.5" x2="479.5" y1="139.6953" y2="139.6953"/><text fill="#000000" font-family="sans-serif" font-size="13" lengthAdjust="spacing" textLength="56" x="63.5" y="134.6294">SYN ACK</text><polygon fill="#181818" points="468.5,164.8281,478.5,168.8281,468.5,172.8281,472.5,168.8281" style="stroke:#181818;stroke-width:1.0;"/><line style="stroke:#181818;stroke-width:1.0;" x1="46.5" x2="474.5" y1="168.8281" y2="168.8281"/><text fill="#000000" font-family="sans-serif" font-size="13" lengthAdjust="spacing" textLength="26" x="53.5" y="163.7622">ACK</text><rect fill="#EEEEEE" height="3" style="stroke:#EEEEEE;stroke-width:1.0;" width="529.5" x="0" y="197.3945"/><line style="stroke:#000000;stroke-width:1.0;" x1="0" x2="529.5" y1="197.3945" y2="197.3945"/><line style="stroke:#000000;stroke-width:1.0;" x1="0" x2="529.5" y1="200.3945" y2="200.3945"/><rect fill="#EEEEEE" height="23.1328" style="stroke:#000000;stroke-width:2.0;" width="130" x="199.75" y="186.8281"/><text fill="#000000" font-family="sans-serif" font-size="13" font-weight="bold" lengthAdjust="spacing" textLength="111" x="205.75" y="202.895">TLS handshake</text><polygon fill="#181818" points="468.5,252.2266,478.5,256.2266,468.5,260.2266,472.5,256.2266" style="stroke:#181818;stroke-width:1.0;"/><line style="stroke:#181818;stroke-width:1.0;" x1="46.5" x2="474.5" y1="256.2266" y2="256.2266"/><text fill="#000000" font-family="sans-serif" font-size="13" font-weight="bold" lengthAdjust="spacing" textLength="21" x="53.5" y="243.5942">[1]</text><text fill="#000000" font-family="sans-serif" font-size="13" lengthAdjust="spacing" textLength="68" x="78.5" y="236.0278">ClientHello</text><text fill="#000000" font-family="sans-serif" font-size="13" lengthAdjust="spacing" textLength="313" x="78.5" y="251.1606">(supported TLS v., cipher suites + client random)</text><polygon fill="#181818" points="57.5,296.4922,47.5,300.4922,57.5,304.4922,53.5,300.4922" style="stroke:#181818;stroke-width:1.0;"/><line style="stroke:#181818;stroke-width:1.0;" x1="51.5" x2="479.5" y1="300.4922" y2="300.4922"/><text fill="#000000" font-family="sans-serif" font-size="13" font-weight="bold" lengthAdjust="spacing" textLength="21" x="63.5" y="287.8599">[2]</text><text fill="#000000" font-family="sans-serif" font-size="13" lengthAdjust="spacing" textLength="74" x="88.5" y="280.2935">ServerHello</text><text fill="#000000" font-family="sans-serif" font-size="13" lengthAdjust="spacing" textLength="301" x="88.5" y="295.4263">(selected TLS v., cipher suite + server random)</text><path d="M10,315.4922 L74,315.4922 L74,322.625 L64,332.625 L10,332.625 L10,315.4922 " fill="#EEEEEE" style="stroke:#000000;stroke-width:1.5;"/><rect fill="none" height="105.3359" style="stroke:#000000;stroke-width:1.5;" width="509.5" x="10" y="315.4922"/><text fill="#000000" font-family="sans-serif" font-size="13" font-weight="bold" lengthAdjust="spacing" textLength="19" x="25" y="328.5591">alt</text><text fill="#000000" font-family="sans-serif" font-size="11" font-weight="bold" lengthAdjust="spacing" textLength="117" x="89" y="327.7026">[Anonymous case]</text><polygon fill="#181818" points="57.5,349.7578,47.5,353.7578,57.5,357.7578,53.5,353.7578" style="stroke:#181818;stroke-width:1.0;"/><line style="stroke:#181818;stroke-width:1.0;" x1="51.5" x2="479.5" y1="353.7578" y2="353.7578"/><text fill="#808080" font-family="sans-serif" font-size="13" font-weight="bold" lengthAdjust="spacing" textLength="21" x="63.5" y="348.6919">[3]</text><text fill="#000000" font-family="sans-serif" font-size="13" lengthAdjust="spacing" textLength="127" x="88.5" y="348.6919">ServerKeyExchange</text><line style="stroke:#000000;stroke-width:1.0;stroke-dasharray:2.0,2.0;" x1="10" x2="519.5" y1="362.7578" y2="362.7578"/><text fill="#000000" font-family="sans-serif" font-size="11" font-weight="bold" lengthAdjust="spacing" textLength="87" x="15" y="372.9683">[Other cases]</text><polygon fill="#181818" points="57.5,408.8281,47.5,412.8281,57.5,416.8281,53.5,412.8281" style="stroke:#181818;stroke-width:1.0;"/><line style="stroke:#181818;stroke-width:1.0;" x1="51.5" x2="479.5" y1="412.8281" y2="412.8281"/><text fill="#808080" font-family="sans-serif" font-size="13" font-weight="bold" lengthAdjust="spacing" textLength="21" x="63.5" y="400.1958">[4]</text><text fill="#000000" font-family="sans-serif" font-size="13" lengthAdjust="spacing" textLength="65" x="88.5" y="392.6294">Certificate</text><text fill="#000000" font-family="sans-serif" font-size="13" lengthAdjust="spacing" textLength="261" x="88.5" y="407.7622">(signed by CA | public key + identity info)</text><polygon fill="#181818" points="57.5,444.9609,47.5,448.9609,57.5,452.9609,53.5,448.9609" style="stroke:#181818;stroke-width:1.0;"/><line style="stroke:#181818;stroke-width:1.0;" x1="51.5" x2="479.5" y1="448.9609" y2="448.9609"/><text fill="#808080" font-family="sans-serif" font-size="13" font-weight="bold" lengthAdjust="spacing" textLength="197" x="63.5" y="443.895">(5 | Mutual authentication)</text><text fill="#000000" font-family="sans-serif" font-size="13" lengthAdjust="spacing" textLength="117" x="264.5" y="443.895">CertificateRequest</text><polygon fill="#181818" points="57.5,474.0938,47.5,478.0938,57.5,482.0938,53.5,478.0938" style="stroke:#181818;stroke-width:1.0;"/><line style="stroke:#181818;stroke-width:1.0;" x1="51.5" x2="479.5" y1="478.0938" y2="478.0938"/><text fill="#000000" font-family="sans-serif" font-size="13" font-weight="bold" lengthAdjust="spacing" textLength="21" x="63.5" y="473.0278">[6]</text><text fill="#000000" font-family="sans-serif" font-size="13" lengthAdjust="spacing" textLength="108" x="88.5" y="473.0278">ServerHelloDone</text><polygon fill="#181818" points="468.5,503.2266,478.5,507.2266,468.5,511.2266,472.5,507.2266" style="stroke:#181818;stroke-width:1.0;"/><line style="stroke:#181818;stroke-width:1.0;" x1="46.5" x2="474.5" y1="507.2266" y2="507.2266"/><text fill="#808080" font-family="sans-serif" font-size="13" font-weight="bold" lengthAdjust="spacing" textLength="197" x="53.5" y="502.1606">(7 | Mutual authentication)</text><text fill="#000000" font-family="sans-serif" font-size="13" lengthAdjust="spacing" textLength="65" x="254.5" y="502.1606">Certificate</text><polygon fill="#181818" points="468.5,547.4922,478.5,551.4922,468.5,555.4922,472.5,551.4922" style="stroke:#181818;stroke-width:1.0;"/><line style="stroke:#181818;stroke-width:1.0;" x1="46.5" x2="474.5" y1="551.4922" y2="551.4922"/><text fill="#000000" font-family="sans-serif" font-size="13" font-weight="bold" lengthAdjust="spacing" textLength="21" x="53.5" y="538.8599">[8]</text><text fill="#000000" font-family="sans-serif" font-size="13" lengthAdjust="spacing" textLength="121" x="78.5" y="531.2935">ClientKeyExchange</text><text fill="#000000" font-family="sans-serif" font-size="13" lengthAdjust="spacing" textLength="221" x="78.5" y="546.4263">(depend on selected cipher suites)</text><polygon fill="#181818" points="468.5,591.7578,478.5,595.7578,468.5,599.7578,472.5,595.7578" style="stroke:#181818;stroke-width:1.0;"/><line style="stroke:#181818;stroke-width:1.0;" x1="46.5" x2="474.5" y1="595.7578" y2="595.7578"/><text fill="#808080" font-family="sans-serif" font-size="13" font-weight="bold" lengthAdjust="spacing" textLength="197" x="53.5" y="583.1255">(9 | Mutual authentication)</text><text fill="#000000" font-family="sans-serif" font-size="13" lengthAdjust="spacing" textLength="103" x="254.5" y="575.5591">Certificate verify</text><text fill="#000000" font-family="sans-serif" font-size="13" lengthAdjust="spacing" textLength="209" x="254.5" y="590.6919">(proof client owns the certificate)</text><polygon fill="#181818" points="468.5,620.8906,478.5,624.8906,468.5,628.8906,472.5,624.8906" style="stroke:#181818;stroke-width:1.0;"/><line style="stroke:#181818;stroke-width:1.0;" x1="46.5" x2="474.5" y1="624.8906" y2="624.8906"/><text fill="#000000" font-family="sans-serif" font-size="13" font-weight="bold" lengthAdjust="spacing" textLength="30" x="53.5" y="619.8247">[10]</text><text fill="#000000" font-family="sans-serif" font-size="13" lengthAdjust="spacing" textLength="122" x="87.5" y="619.8247">ChangeCipherSpec</text><polygon fill="#181818" points="468.5,665.1563,478.5,669.1563,468.5,673.1563,472.5,669.1563" style="stroke:#181818;stroke-width:1.0;"/><line style="stroke:#181818;stroke-width:1.0;" x1="46.5" x2="474.5" y1="669.1563" y2="669.1563"/><text fill="#000000" font-family="sans-serif" font-size="13" font-weight="bold" lengthAdjust="spacing" textLength="30" x="53.5" y="656.5239">[11]</text><text fill="#000000" font-family="sans-serif" font-size="13" lengthAdjust="spacing" textLength="52" x="87.5" y="648.9575">Finished</text><text fill="#000000" font-family="sans-serif" font-size="13" lengthAdjust="spacing" textLength="173" x="87.5" y="664.0903">(Client handshake finished)</text><polygon fill="#181818" points="57.5,694.2891,47.5,698.2891,57.5,702.2891,53.5,698.2891" style="stroke:#181818;stroke-width:1.0;"/><line style="stroke:#181818;stroke-width:1.0;" x1="51.5" x2="479.5" y1="698.2891" y2="698.2891"/><text fill="#000000" font-family="sans-serif" font-size="13" font-weight="bold" lengthAdjust="spacing" textLength="30" x="63.5" y="693.2231">[12]</text><text fill="#000000" font-family="sans-serif" font-size="13" lengthAdjust="spacing" textLength="122" x="97.5" y="693.2231">ChangeCipherSpec</text><polygon fill="#181818" points="57.5,738.5547,47.5,742.5547,57.5,746.5547,53.5,742.5547" style="stroke:#181818;stroke-width:1.0;"/><line style="stroke:#181818;stroke-width:1.0;" x1="51.5" x2="479.5" y1="742.5547" y2="742.5547"/><text fill="#000000" font-family="sans-serif" font-size="13" font-weight="bold" lengthAdjust="spacing" textLength="30" x="63.5" y="729.9224">[13]</text><text fill="#000000" font-family="sans-serif" font-size="13" lengthAdjust="spacing" textLength="52" x="97.5" y="722.356">Finished</text><text fill="#000000" font-family="sans-serif" font-size="13" lengthAdjust="spacing" textLength="179" x="97.5" y="737.4888">(Server handshake finished)</text><rect fill="#EEEEEE" height="3" style="stroke:#EEEEEE;stroke-width:1.0;" width="529.5" x="0" y="778.6875"/><line style="stroke:#000000;stroke-width:1.0;" x1="0" x2="529.5" y1="778.6875" y2="778.6875"/><line style="stroke:#000000;stroke-width:1.0;" x1="0" x2="529.5" y1="781.6875" y2="781.6875"/><rect fill="#EEEEEE" height="38.2656" style="stroke:#000000;stroke-width:2.0;" width="215" x="157.25" y="760.5547"/><text fill="#000000" font-family="sans-serif" font-size="13" font-weight="bold" lengthAdjust="spacing" textLength="201" x="163.25" y="776.6216">Client and server moved to</text><text fill="#000000" font-family="sans-serif" font-size="13" font-weight="bold" lengthAdjust="spacing" textLength="192" x="163.25" y="791.7544">encrypted communication</text><!--SRC=[lPJRRjH038RlynJMxasZKXu0DIijuIIrGDNjJLMuo4wSpQWJEynXsqWyFCvXcm1PL2J4LI9xvlF_ptYS972JNa6IHAdHI1xELh11kqVx2ZQtdwB-luts-IuAw_HYPdqRZH81NcwWp2XtPNQFBJeBdYbKMm4jphUhk-Lo-NKn0-WZ7z0O_a8dBjGrMuzv1zo_V05ArwKmND0U7Po2wWbMQd4L7u3dPwE3xli4H8Fg64zmhlTwm4rKMtIXGX5Vi1HGRDWcEulDQdIJ6G_BIxqh_MiJ4DR4r5GS7AZCuL5f5zYyVLHoM3kCq3Y4WV7U8X9yzgsy5k1c22bQhmkjCe-jERqZiRPj85t3TwZ3rcW5zzY8CPtBLkqRq5Hm727bppLt8kQ4zZ7ua1cGJMLBafAQALxyMTGrVWle_6ofNvjW_ixUCE6_LJfjjb7fioJ-rgUJkvFppx6MSmKcU6gpdzer_Xz6G0AwQ4HERPcBmmFX1t8W753ZqlYlJNTEqyxJfaOri-IT9krApAN-a1p7G37avfxfCVHaoGGzZAGvT3jzXhsIFJpeYlTo6rv609AoJTtT3LTLeE5OPKRz0000]--></g></svg>