<?xml version="1.0" encoding="UTF-8" standalone="no"?>
<!-- Created with Inkscape (http://www.inkscape.org/) -->

<svg
   width="306.29611mm"
   height="267.98871mm"
   viewBox="0 0 306.29611 267.98871"
   version="1.1"
   id="svg5"
   xml:space="preserve"
   sodipodi:docname="canopen_eds.svg"
   inkscape:version="1.2.2 (b0a8486541, 2022-12-01)"
   xmlns:inkscape="http://www.inkscape.org/namespaces/inkscape"
   xmlns:sodipodi="http://sodipodi.sourceforge.net/DTD/sodipodi-0.dtd"
   xmlns:xlink="http://www.w3.org/1999/xlink"
   xmlns="http://www.w3.org/2000/svg"
   xmlns:svg="http://www.w3.org/2000/svg"><sodipodi:namedview
     id="namedview7"
     pagecolor="#ffffff"
     bordercolor="#000000"
     borderopacity="0.25"
     inkscape:showpageshadow="2"
     inkscape:pageopacity="0.0"
     inkscape:pagecheckerboard="0"
     inkscape:deskcolor="#d1d1d1"
     inkscape:document-units="mm"
     showgrid="false"
     inkscape:zoom="0.63839115"
     inkscape:cx="865.45686"
     inkscape:cy="742.49149"
     inkscape:window-width="1440"
     inkscape:window-height="849"
     inkscape:window-x="0"
     inkscape:window-y="27"
     inkscape:window-maximized="1"
     inkscape:current-layer="layer1" /><defs
     id="defs2"><path
   id="SVGID_1_"
   d="m 106.468,111.891 h 11.364 v 34.964 H 97.726 c -31.818,0 -59.09,-26.053 -59.09,-61.016 0,-35.313 27.272,-61.364 59.09,-61.364 h 20.106 v 34.967 h -11.364 c -15.733,0 -28.321,10.14 -28.321,26.397 0,15.91 12.587,26.052 28.321,26.052 z m 80.767,34.963 v -37.235 h -11.711 v -31.12 h 11.711 v -10.84 c 0,-6.293 -3.67,-9.964 -8.739,-9.964 -5.07,0 -8.566,3.671 -8.566,9.964 v 79.196 H 131.817 V 68.532 c 0,-17.132 12.414,-46.154 46.854,-46.154 34.442,0 46.679,29.021 46.679,46.154 v 78.322 z m 136.188,2.448 c -10.837,0 -18.881,-7.518 -22.202,-14.158 L 281.64,96.503 h -0.349 v 50.352 H 243.178 V 44.407 c 0,-17.482 12.937,-22.028 20.627,-22.028 10.84,0 18.884,7.518 22.205,14.161 l 19.581,38.635 h 0.35 v -50.7 h 38.111 v 102.797 c 10e-4,17.483 -12.936,22.03 -20.629,22.03 z m 78.673,-0.7 c -23.776,0 -41.96,-19.753 -41.96,-43.182 0,-23.426 18.184,-43.183 41.96,-43.183 23.773,0 41.956,19.756 41.956,43.183 0,23.429 -18.183,43.182 -41.956,43.182 z m 0,-80.07 c -20.281,0 -34.965,17.657 -34.965,36.888 0,19.234 14.684,36.889 34.965,36.889 20.28,0 34.963,-17.654 34.963,-36.889 0,-19.231 -14.683,-36.888 -34.963,-36.888 z m 99.473,80.07 c -12.759,0 -20.805,-6.293 -25.87,-10.488 v -7.871 c 7.165,7.523 14.858,12.066 25.87,12.066 16.784,0 33.395,-15.56 33.395,-36.889 0,-21.329 -16.61,-36.888 -33.395,-36.888 -19.929,0 -33.74,17.657 -33.74,36.888 v 81.295 h -6.642 V 105.42 c 0,-25 17.829,-43.183 40.382,-43.183 22.554,0 40.384,18.182 40.384,43.183 0,25 -17.83,43.182 -40.384,43.182 z m 69.409,-31.471 53.317,-36.011 c -6.117,-7.692 -15.729,-12.587 -26.748,-12.587 -21.153,0 -36.012,17.657 -36.012,37.416 0,19.578 15.383,36.36 36.012,36.36 20.106,0 36.019,-16.26 36.366,-35.142 h 6.993 c -0.522,22.028 -18.529,41.435 -41.958,41.435 -25.871,0 -44.406,-18.706 -44.406,-43.006 0,-23.426 17.482,-43.358 43.005,-43.358 15.913,0 29.371,8.218 36.889,20.282 l -59.265,40.211 z m 144.4,29.723 V 97.205 c 0,-17.31 -12.059,-28.673 -26.57,-28.673 -14.513,0 -26.571,11.363 -26.571,28.673 v 49.649 H 655.59 V 96.331 c 0,-20.457 14.688,-34.094 33.219,-34.094 18.529,0 33.218,13.637 33.218,34.094 v 50.523 z" /><path
   id="SVGID_3_"
   d="m 684.527,132.258 h 4.456 l 5.293,8.695 h 2.355 l -5.594,-8.695 c 2.709,-0.438 4.547,-1.577 4.547,-4.9 0,-3.363 -1.878,-4.849 -5.771,-4.849 h -6.948 v 18.444 h 1.661 v -8.695 z m 0,-1.577 v -6.602 h 4.764 c 2.271,0 4.456,0.614 4.456,3.238 0,3.278 -2.794,3.363 -5.635,3.363 h -3.585 z m 4.241,16.697 c 8.695,0 15.604,-7.171 15.604,-15.82 0,-8.656 -6.909,-15.82 -15.604,-15.82 -8.695,0 -15.514,7.164 -15.514,15.82 0,8.649 6.818,15.82 15.514,15.82 z m 0,-1.661 c -7.779,0 -13.59,-6.511 -13.59,-14.159 0,-7.649 5.811,-14.159 13.59,-14.159 7.733,0 13.681,6.51 13.681,14.159 -10e-4,7.648 -5.948,14.159 -13.681,14.159 z" />
			
				
		<clipPath
   clipPathUnits="userSpaceOnUse"
   id="clipPath2469"><g
     id="g2473"><use
       xlink:href="#SVGID_1_"
       overflow="visible"
       id="use2471"
       x="0"
       y="0"
       width="100%"
       height="100%" /></g></clipPath></defs><g
     inkscape:label="Layer 1"
     inkscape:groupmode="layer"
     id="layer1"
     transform="translate(63.299992,141.26497)"><g
       id="g4599"
       transform="translate(56.855324,30.346451)"><text
         xml:space="preserve"
         style="font-style:normal;font-variant:normal;font-weight:bold;font-stretch:normal;font-size:35.2778px;font-family:sans-serif;-inkscape-font-specification:'sans-serif Bold';fill:#026d67;fill-opacity:1;stroke-width:0.264583"
         x="-6.7292371"
         y="-46.626312"
         id="text236"
         inkscape:label="text_eds"><tspan
           sodipodi:role="line"
           id="tspan234"
           style="font-style:italic;font-variant:normal;font-weight:bold;font-stretch:normal;font-size:35.2778px;font-family:sans-serif;-inkscape-font-specification:'sans-serif Bold Italic';fill:#026d67;fill-opacity:1;stroke-width:0.264583"
           x="-6.7292371"
           y="-46.626312">EDS</tspan></text><path
         d="m 65.095518,-119.93188 h -82.843981 a 10.112963,10.112963 0 0 0 -10.112963,10.08356 V 34.614184 a 10.112963,10.112963 0 0 0 10.112963,10.083565 H 83.733944 A 10.112963,10.112963 0 0 0 93.846907,34.614184 V -88.711047 Z m 2.38125,15.11065 12.553009,13.670137 H 67.476768 Z M 85.350842,34.614184 a 1.6168981,1.6168981 0 0 1 -1.616898,1.616898 H -17.748463 a 1.6168981,1.6168981 0 0 1 -1.616898,-1.616898 V -109.84832 a 1.5875,1.5875 0 0 1 1.616898,-1.5875 h 76.758565 v 24.547458 a 4.2627315,4.2627315 0 0 0 4.233333,4.233334 h 22.107407 z"
         id="path293"
         style="fill:#026d67;fill-opacity:1;stroke-width:2.93981"
         inkscape:label="path_file" /><g
         id="g4399"
         transform="translate(1.7181406)"
         inkscape:label="setting"><path
           d="m 39.27084,-15.070516 h -1.657274 a 2.9575974,2.9575974 0 0 1 -2.549653,-1.886743 v -0.101986 a 2.8811078,2.8811078 0 0 1 0.560923,-3.212563 l 1.172841,-1.17284 a 2.8811078,2.8811078 0 0 0 0,-4.028452 l -4.155934,-3.977458 a 2.8811078,2.8811078 0 0 0 -4.028452,0 l -1.17284,1.17284 a 2.8811078,2.8811078 0 0 1 -3.187067,0.560924 v 0 a 2.9575974,2.9575974 0 0 1 -1.886743,-2.549653 v -1.810254 a 2.8301147,2.8301147 0 0 0 -2.932101,-2.830114 h -5.660229 a 2.8301147,2.8301147 0 0 0 -2.830114,2.830114 v 1.657275 a 2.9575974,2.9575974 0 0 1 -1.8867435,2.549653 H 8.9554674 a 2.8811078,2.8811078 0 0 1 -3.1870661,-0.407945 l -1.1728404,-1.17284 a 2.8811078,2.8811078 0 0 0 -4.02845159,0 l -4.00295501,4.002955 a 2.8811078,2.8811078 0 0 0 0,4.028452 l 1.1728403,1.17284 a 2.8811078,2.8811078 0 0 1 0.5609237,3.187066 v 0 a 2.9575974,2.9575974 0 0 1 -2.5496529,1.886743 h -1.8102541 a 2.8301147,2.8301147 0 0 0 -2.830114,2.932101 v 5.6602293 a 2.8301147,2.8301147 0 0 0 2.830114,2.8301147 h 1.6572749 a 2.9575974,2.9575974 0 0 1 2.5496529,1.8867431 v 0 a 2.8811078,2.8811078 0 0 1 -0.5609237,3.2125627 l -1.1728403,1.1728403 a 2.8811078,2.8811078 0 0 0 0,4.0284516 l 4.00295511,4.0029553 a 2.8811078,2.8811078 0 0 0 4.02845159,0 L 5.6154221,9.3806554 a 2.8811078,2.8811078 0 0 1 3.3400453,-0.484434 v 0 a 2.9575974,2.9575974 0 0 1 1.8867436,2.5496526 v 1.657275 a 2.8301147,2.8301147 0 0 0 2.9321,2.983094 h 5.660229 a 2.8301147,2.8301147 0 0 0 2.830115,-2.830115 v -1.657275 a 2.9575974,2.9575974 0 0 1 1.886743,-2.5496525 v 0 a 2.8811078,2.8811078 0 0 1 3.212563,0.5609237 l 1.17284,1.1728398 a 2.8811078,2.8811078 0 0 0 4.028452,0 l 4.002955,-4.0029545 a 2.8811078,2.8811078 0 0 0 0,-4.0284516 l -1.17284,-1.1728404 a 2.8811078,2.8811078 0 0 1 -0.484434,-3.3400453 v 0 a 2.9575974,2.9575974 0 0 1 2.549652,-1.8867431 h 1.657275 a 2.8301147,2.8301147 0 0 0 2.983094,-2.9321008 V -12.240401 A 2.8301147,2.8301147 0 0 0 39.27084,-15.070516 Z M 16.604426,0.78832513 A 10.198612,10.198612 0 1 1 26.803037,-9.4102862 10.198612,10.198612 0 0 1 16.604426,0.78832513 Z"
           id="path303"
           style="fill:#026d67;fill-opacity:1;stroke:none;stroke-width:2.54965" /><path
           d="M 69.639344,11.540205 68.643238,11.029929 A 1.9973424,1.9973424 0 0 1 67.691697,9.1108591 l 0.0314,-0.06129 A 1.945687,1.945687 0 0 1 69.049392,7.2913584 L 70.115448,6.9475406 A 1.945687,1.945687 0 0 0 71.355812,4.5262359 L 70.082547,0.85596546 a 1.945687,1.945687 0 0 0 -2.421305,-1.24036457 l -1.066054,0.3438155 a 1.945687,1.945687 0 0 1 -2.088298,-0.644157 v 0 A 1.9973424,1.9973424 0 0 1 64.157902,-2.7981421 l 0.557379,-1.0880547 A 1.91125,1.91125 0 0 0 63.824334,-6.490037 l -3.402086,-1.74279 a 1.91125,1.91125 0 0 0 -2.572438,0.8296484 l -0.510277,0.9961066 a 1.9973424,1.9973424 0 0 1 -1.919069,0.9515416 l -0.06129,-0.0314 a 1.945687,1.945687 0 0 1 -1.789986,-1.2264984 l -0.343819,-1.0660554 a 1.945687,1.945687 0 0 0 -2.421303,-1.240364 l -3.638494,1.1734661 a 1.945687,1.945687 0 0 0 -1.240364,2.4213046 l 0.343817,1.066055 a 1.945687,1.945687 0 0 1 -0.644156,2.0882985 v 0 a 1.9973424,1.9973424 0 0 1 -2.113401,0.3489875 l -1.088055,-0.5573792 a 1.91125,1.91125 0 0 0 -2.603839,0.8909474 l -1.74279,3.4020862 a 1.91125,1.91125 0 0 0 0.829646,2.5724385 l 0.996107,0.5102766 a 1.9973424,1.9973424 0 0 1 0.951542,1.9190687 v 0 A 1.945687,1.945687 0 0 1 39.527785,8.573906 l -1.066056,0.343818 a 1.945687,1.945687 0 0 0 -1.240364,2.421303 l 1.173466,3.638494 a 1.945687,1.945687 0 0 0 2.421305,1.240365 l 1.066055,-0.343818 a 1.945687,1.945687 0 0 1 2.156695,0.737234 v 0 a 1.9973424,1.9973424 0 0 1 0.348987,2.113401 l -0.510276,0.996106 a 1.91125,1.91125 0 0 0 0.843844,2.695788 l 3.402086,1.74279 a 1.91125,1.91125 0 0 0 2.572439,-0.829648 l 0.510277,-0.996107 a 1.9973424,1.9973424 0 0 1 1.919069,-0.951541 v 0 a 1.945687,1.945687 0 0 1 1.758204,1.326295 l 0.343819,1.066055 a 1.945687,1.945687 0 0 0 2.421304,1.240364 l 3.638494,-1.173465 a 1.945687,1.945687 0 0 0 1.240364,-2.421305 l -0.343818,-1.066056 a 1.945687,1.945687 0 0 1 0.737233,-2.156693 v 0 a 1.9973424,1.9973424 0 0 1 2.113401,-0.348989 l 0.996107,0.510277 a 1.91125,1.91125 0 0 0 2.695788,-0.843844 l 1.74279,-3.402087 a 1.91125,1.91125 0 0 0 -0.829649,-2.572438 z m -18.50662,2.55296 a 6.8873878,6.8873878 0 1 1 9.270046,-2.989722 6.8873878,6.8873878 0 0 1 -9.270046,2.989722 z"
           id="path4348"
           style="fill:#026d67;fill-opacity:1;stroke:none;stroke-width:1.72184" /></g></g></g></svg>
