<?xml version="1.0" encoding="UTF-8" standalone="no"?>
<!-- Created with Inkscape (http://www.inkscape.org/) -->

<svg
   version="1.0"
   width="223.6875"
   height="182.84474"
   viewBox="-138.624 -137.291 223.68749 182.84475"
   id="Layer_1"
   xml:space="preserve"
   sodipodi:docname="canopen_DB9_pin_assignment.svg"
   inkscape:version="1.1.2 (b8e25be833, 2022-02-05)"
   xmlns:inkscape="http://www.inkscape.org/namespaces/inkscape"
   xmlns:sodipodi="http://sodipodi.sourceforge.net/DTD/sodipodi-0.dtd"
   xmlns="http://www.w3.org/2000/svg"
   xmlns:svg="http://www.w3.org/2000/svg"><sodipodi:namedview
   id="namedview209"
   pagecolor="#ffffff"
   bordercolor="#111111"
   borderopacity="1"
   inkscape:pageshadow="0"
   inkscape:pageopacity="0"
   inkscape:pagecheckerboard="1"
   showgrid="false"
   inkscape:zoom="2.519393"
   inkscape:cx="83.154949"
   inkscape:cy="58.744308"
   inkscape:window-width="1920"
   inkscape:window-height="1009"
   inkscape:window-x="-8"
   inkscape:window-y="-8"
   inkscape:window-maximized="1"
   inkscape:current-layer="Layer_1"
   lock-margins="true"
   fit-margin-top="5"
   fit-margin-left="5"
   fit-margin-right="5"
   fit-margin-bottom="5" /><defs
   id="defs2584" />

<g
   id="g2237"
   transform="translate(-163.179,-191.70965)">
	<path
   d="m 146.732,164.752 c 0,3.312 -2.685,5.999 -6,5.999 H 36.555 c -3.315,0 -6,-2.687 -6,-5.999 v -35.663 c 0,-3.316 2.685,-6 6,-6 h 104.178 c 3.315,0 6,2.684 6,6 v 35.663 z"
   style="fill:#ffffff;stroke:#000000;stroke-width:2"
   id="path2239" />
	<g
   id="g2241"
   style="fill:#000000">
		<circle
   cx="66.588997"
   cy="141.351"
   r="2.2409999"
   style="fill:#b3b3b3;stroke:#b3b3b3;stroke-opacity:1"
   id="circle2243" />
		<circle
   cx="77.617996"
   cy="141.351"
   r="2.2409999"
   style="fill:#d40000;stroke:#d40000;stroke-opacity:1"
   id="circle2245" />
		<circle
   cx="88.643997"
   cy="141.351"
   r="2.2379999"
   style="fill:#008000;stroke:#008000;stroke-opacity:1"
   id="circle2247" />
		<path
   d="m 99.668,139.11 c 1.238,0 2.242,1.004 2.242,2.241 0,1.237 -1.004,2.24 -2.242,2.24 -1.233,0 -2.237,-1.003 -2.237,-2.24 0,-1.237 1.004,-2.241 2.237,-2.241 z"
   style="fill:#b3b3b3;stroke:#b3b3b3;stroke-opacity:1"
   id="path2249" />
		<circle
   cx="110.697"
   cy="141.351"
   r="2.2409999"
   style="fill:#4d4d4d;stroke:#4d4d4d;stroke-opacity:1"
   id="circle2251" />
		<circle
   cx="72.102997"
   cy="152.491"
   r="2.2390001"
   style="fill:#4d4d4d;stroke:#4d4d4d;stroke-opacity:1"
   id="circle2253" />
		<circle
   cx="83.130997"
   cy="152.491"
   r="2.2390001"
   style="fill:#d40000;stroke:#d40000;stroke-opacity:1"
   id="circle2255" />
		<path
   d="m 94.156,150.252 c 1.237,0 2.238,1.003 2.238,2.237 0,1.237 -1.001,2.241 -2.238,2.241 -1.238,0 -2.242,-1.004 -2.242,-2.241 0,-1.234 1.004,-2.237 2.242,-2.237 z"
   style="fill:#b3b3b3;stroke:#b3b3b3;stroke-opacity:1"
   id="path2257" />
		<circle
   cx="105.185"
   cy="152.491"
   r="2.2390001"
   style="fill:#ffd42a;stroke:#ffd42a;stroke-opacity:1"
   id="circle2259" />
	</g>
	<path
   d="m 63.644,130.222 c -5.609,0 -9.4,4.518 -8.425,10.042 l 2.354,13.309 c 0.976,5.525 6.366,10.049 11.975,10.049 h 38.191 c 5.608,0 10.996,-4.523 11.975,-10.049 l 2.354,-13.309 c 0.975,-5.524 -2.813,-10.042 -8.425,-10.042 z"
   style="fill:none;stroke:#000000"
   id="path2261" />
	<g
   id="g2263">
		<circle
   cx="41.759998"
   cy="146.922"
   r="5.0539999"
   style="fill:none;stroke:#000000"
   id="circle2265" />
		<circle
   cx="135.528"
   cy="146.922"
   r="5.0539999"
   style="fill:none;stroke:#000000"
   id="circle2267" />
	</g>
</g>








<text
   xml:space="preserve"
   style="font-style:normal;font-weight:normal;font-size:6.66667px;line-height:1.25;font-family:sans-serif;fill:#b3b3b3;fill-opacity:1;stroke:none"
   x="-102.15175"
   y="-53.472324"
   id="text2412"><tspan
     sodipodi:role="line"
     id="tspan2410"
     x="-102.15175"
     y="-53.472324"
     style="font-size:6.66667px;fill:#b3b3b3">1</tspan></text><text
   xml:space="preserve"
   style="font-style:normal;font-weight:normal;font-size:6.66667px;line-height:1.25;font-family:sans-serif;fill:#d40000;fill-opacity:1;stroke:none"
   x="-91.362572"
   y="-53.438999"
   id="text2412-9"><tspan
     sodipodi:role="line"
     id="tspan2410-9"
     x="-91.362572"
     y="-53.438999"
     style="font-size:6.66667px;fill:#d40000">2</tspan></text><text
   xml:space="preserve"
   style="font-style:normal;font-weight:normal;font-size:6.66667px;line-height:1.25;font-family:sans-serif;fill:#008000;fill-opacity:1;stroke:none"
   x="-80.133408"
   y="-53.472324"
   id="text2412-9-4"><tspan
     sodipodi:role="line"
     id="tspan2410-9-6"
     x="-80.133408"
     y="-53.472324"
     style="font-size:6.66667px;fill:#008000">3</tspan></text><text
   xml:space="preserve"
   style="font-style:normal;font-weight:normal;font-size:6.66667px;line-height:1.25;font-family:sans-serif;fill:#b3b3b3;fill-opacity:1;stroke:none"
   x="-68.974236"
   y="-53.459003"
   id="text2412-9-7"><tspan
     sodipodi:role="line"
     id="tspan2410-9-9"
     x="-68.974236"
     y="-53.459003"
     style="font-size:6.66667px;fill:#b3b3b3">4</tspan></text><text
   xml:space="preserve"
   style="font-style:normal;font-weight:normal;font-size:6.66667px;line-height:1.25;font-family:sans-serif;fill:#4d4d4d;fill-opacity:1;stroke:none"
   x="-57.788387"
   y="-53.505665"
   id="text2412-9-6"><tspan
     sodipodi:role="line"
     id="tspan2410-9-62"
     x="-57.788387"
     y="-53.505665"
     style="font-size:6.66667px;fill:#4d4d4d">5</tspan></text><text
   xml:space="preserve"
   style="font-style:normal;font-weight:normal;font-size:6.66667px;line-height:1.25;font-family:sans-serif;fill:#4d4d4d;fill-opacity:1;stroke:none"
   x="-96.503563"
   y="-31.476566"
   id="text2412-9-0"><tspan
     sodipodi:role="line"
     id="tspan2410-9-93"
     x="-96.503563"
     y="-31.476566"
     style="font-size:6.66667px;fill:#4d4d4d">6</tspan></text><text
   xml:space="preserve"
   style="font-style:normal;font-weight:normal;font-size:6.66667px;line-height:1.25;font-family:sans-serif;fill:#d40000;fill-opacity:1;stroke:none"
   x="-85.225258"
   y="-31.476566"
   id="text2412-9-8"><tspan
     sodipodi:role="line"
     id="tspan2410-9-0"
     x="-85.225258"
     y="-31.476566"
     style="font-size:6.66667px;fill:#d40000">7</tspan></text><text
   xml:space="preserve"
   style="font-style:normal;font-weight:normal;font-size:6.66667px;line-height:1.25;font-family:sans-serif;fill:#b3b3b3;fill-opacity:1;stroke:none"
   x="-74.003609"
   y="-31.476566"
   id="text2412-9-79"><tspan
     sodipodi:role="line"
     id="tspan2410-9-01"
     x="-74.003609"
     y="-31.476566"
     style="font-size:6.66667px;fill:#b3b3b3">8</tspan></text><text
   xml:space="preserve"
   style="font-style:normal;font-weight:normal;font-size:6.66667px;line-height:1.25;font-family:sans-serif;fill:#ffd42a;fill-opacity:1;stroke:none"
   x="-62.765293"
   y="-31.476566"
   id="text2412-9-00"><tspan
     sodipodi:role="line"
     id="tspan2410-9-3"
     x="-62.765293"
     y="-31.476566"
     style="font-size:6.66667px;fill:#ffd42a">9</tspan></text><text
   class="column-title"
   x="20.714008"
   y="-122.4021"
   font-weight="bold"
   width="65"
   id="text5-9"
   style="font-size:10.6667px;fill:#b3b3b3;fill-opacity:1">Signal</text><text
   class="column-title"
   x="-5.2460022"
   y="-122.4021"
   font-weight="bold"
   width="65"
   id="text5-9-0"
   style="font-size:10.6667px;fill:#b3b3b3;fill-opacity:1">Pin</text><text
   width="17"
   x="0.83401865"
   height="20"
   y="-105.20516"
   id="text9-3"
   style="font-size:10.6667px;fill:#b3b3b3">1</text><text
   width="65"
   x="24.554005"
   height="20"
   y="-104.92902"
   id="text11-3"
   style="font-size:10.6667px;fill:#b3b3b3">-</text><text
   width="17"
   x="0.17268367"
   height="20"
   y="-87.704224"
   id="text17-9"
   style="font-size:10.6667px;fill:#d40000">2</text><text
   width="65"
   x="20.554005"
   height="20"
   y="-87.354591"
   id="text19-5"
   style="font-size:10.6667px;fill:#d40000">CAN_L</text><text
   width="17"
   x="0.21534725"
   height="20"
   y="-70.309959"
   id="text25-2"
   style="font-size:10.6667px;fill:#008000">3</text><text
   width="65"
   x="20.554005"
   height="20"
   y="-69.96151"
   id="text27-0"
   style="font-size:10.6667px;fill:#008000">CAN_GND</text><text
   width="17"
   x="0.14601512"
   height="20"
   y="-52.841011"
   id="text33-7"
   style="font-size:10.6667px;fill:#b3b3b3">4</text><text
   width="65"
   x="24.554005"
   height="20"
   y="-52.749767"
   id="text35-7"
   style="font-size:10.6667px;fill:#b3b3b3">-</text><text
   width="17"
   x="0.11934657"
   height="20"
   y="-35.468086"
   id="text41-9"
   style="font-size:10.6667px;fill:#4d4d4d">5</text><text
   width="65"
   x="20.554005"
   height="20"
   y="-35.196682"
   id="text43-7"
   style="font-size:10.6667px;fill:#4d4d4d">(CAN_SHLD)</text><text
   width="17"
   x="0.10868067"
   height="20"
   y="-17.967155"
   id="text49-4"
   style="font-size:10.6667px;fill:#4d4d4d">6</text><text
   width="65"
   x="20.554005"
   height="20"
   y="-17.8036"
   id="text51-6"
   style="font-size:10.6667px;fill:#4d4d4d">(GND)</text><text
   width="17"
   x="0.17801662"
   height="20"
   y="-0.51955378"
   id="text57-9"
   style="font-size:10.6667px;fill:#d40000">7</text><text
   width="65"
   x="20.554005"
   height="20"
   y="-0.38916743"
   id="text59-0"
   style="font-size:10.6667px;fill:#d40000">CAN_H</text><text
   width="17"
   x="0.15668102"
   height="20"
   y="16.928055"
   id="text65-2"
   style="font-size:10.6667px;fill:#b3b3b3">8</text><text
   width="65"
   x="24.554005"
   height="20"
   y="16.822563"
   id="text67-4"
   style="font-size:10.6667px;fill:#b3b3b3">-</text><text
   width="17"
   x="0.16201396"
   height="20"
   y="34.375656"
   id="text73-6"
   style="font-size:10.6667px;fill:#ffd42a">9</text><text
   width="65"
   x="20.554005"
   height="20"
   y="34.375648"
   id="text75-8"
   style="font-size:10.6667px;fill:#ffd42a">(CAN_V+)</text><line
   x1="16.554005"
   y1="-132.291"
   x2="16.554005"
   y2="40.553741"
   style="font-size:10.6667px;stroke:#b3b3b3;stroke-width:1;stroke-miterlimit:4;stroke-dasharray:none;fill:#f2f2f2;stroke-opacity:1"
   id="line81-6" /></svg>
