<?xml version="1.0" encoding="UTF-8" standalone="no"?>
<!-- Created with Inkscape (http://www.inkscape.org/) -->

<svg
   width="225.63728mm"
   height="120.53519mm"
   viewBox="0 0 225.63728 120.53519"
   version="1.1"
   id="svg5"
   xml:space="preserve"
   inkscape:version="1.2.2 (b0a8486541, 2022-12-01)"
   sodipodi:docname="how-to-setup-eslint-prettier.svg"
   xmlns:inkscape="http://www.inkscape.org/namespaces/inkscape"
   xmlns:sodipodi="http://sodipodi.sourceforge.net/DTD/sodipodi-0.dtd"
   xmlns="http://www.w3.org/2000/svg"
   xmlns:svg="http://www.w3.org/2000/svg"><sodipodi:namedview
     id="namedview7"
     pagecolor="#505050"
     bordercolor="#ffffff"
     borderopacity="1"
     inkscape:showpageshadow="0"
     inkscape:pageopacity="0"
     inkscape:pagecheckerboard="1"
     inkscape:deskcolor="#505050"
     inkscape:document-units="mm"
     showgrid="false"
     inkscape:zoom="1.1213294"
     inkscape:cx="368.75874"
     inkscape:cy="274.67398"
     inkscape:window-width="1920"
     inkscape:window-height="1029"
     inkscape:window-x="0"
     inkscape:window-y="27"
     inkscape:window-maximized="1"
     inkscape:current-layer="layer1" /><defs
     id="defs2" /><g
     inkscape:label="Layer 1"
     inkscape:groupmode="layer"
     id="layer1"
     transform="translate(6.4049287,-27.591942)"><rect
       style="fill:#1f3252;fill-opacity:1;stroke-width:0.264583"
       id="rect3444"
       width="225.63728"
       height="120.53519"
       x="-6.4049287"
       y="27.591942"
       inkscape:label="background" /><g
       id="g6513"
       transform="translate(4.4825136,4.3088928)"
       inkscape:label="logos"><g
         id="Icon-(Dark)"
         style="fill:none;fill-rule:evenodd;stroke:none;stroke-width:1"
         transform="matrix(0.26190476,0,0,0.26190476,119.41713,72.068417)"
         inkscape:label="Prettier-Dark"><g
           id="line-11"
           transform="translate(0,200)"><rect
             id="line-11-dash-3"
             fill="#4d616e"
             opacity="0.5"
             x="150"
             y="0"
             width="60"
             height="10"
             rx="5" /><rect
             id="line-11-dash-2"
             fill="#4d616e"
             opacity="0.5"
             x="70"
             y="0"
             width="70"
             height="10"
             rx="5" /><rect
             id="line-11-dash-1"
             fill="#ea5e5e"
             x="0"
             y="0"
             width="60"
             height="10"
             rx="5" /></g><g
           id="line-10"
           transform="translate(0,180)"><rect
             id="line-10-dash-5"
             fill="#4d616e"
             opacity="0.5"
             x="160"
             y="0"
             width="50"
             height="10"
             rx="5" /><rect
             id="line-10-dash-4"
             fill="#4d616e"
             opacity="0.5"
             x="130"
             y="0"
             width="20"
             height="10"
             rx="5" /><rect
             id="line-10-dash-3"
             fill="#4d616e"
             opacity="0.5"
             x="70"
             y="0"
             width="50"
             height="10"
             rx="5" /><rect
             id="line-10-dash-2"
             fill="#f7b93e"
             x="40"
             y="0"
             width="20"
             height="10"
             rx="5" /><rect
             id="line-10-dash-1"
             fill="#56b3b4"
             x="0"
             y="0"
             width="30"
             height="10"
             rx="5" /></g><g
           id="line-9"
           transform="translate(0,160)"><rect
             id="line-9-dash-3"
             fill="#4d616e"
             opacity="0.5"
             x="110"
             y="0"
             width="100"
             height="10"
             rx="5" /><rect
             id="line-9-dash-2"
             fill="#4d616e"
             opacity="0.5"
             x="70"
             y="0"
             width="30"
             height="10"
             rx="5" /><rect
             id="line-9-dash-1"
             fill="#bf85bf"
             x="0"
             y="0"
             width="60"
             height="10"
             rx="5" /></g><g
           id="line-8"
           transform="translate(0,140)"><rect
             id="line-8-dash-4"
             fill="#4d616e"
             opacity="0.5"
             x="180"
             y="0"
             width="30"
             height="10"
             rx="5" /><rect
             id="line-8-dash-3"
             fill="#4d616e"
             opacity="0.5"
             x="140"
             y="0"
             width="30"
             height="10"
             rx="5" /><rect
             id="line-8-dash-2"
             fill="#f7b93e"
             x="30"
             y="0"
             width="100"
             height="10"
             rx="5" /><rect
             id="line-8-dash-1"
             fill="#bf85bf"
             x="0"
             y="0"
             width="20"
             height="10"
             rx="5" /></g><g
           id="line-7"
           transform="translate(0,120)"><rect
             id="line-7-dash-4"
             fill="#4d616e"
             opacity="0.5"
             x="170"
             y="0"
             width="40"
             height="10"
             rx="5" /><rect
             id="line-7-dash-3"
             fill="#bf85bf"
             x="120"
             y="0"
             width="40"
             height="10"
             rx="5" /><rect
             id="line-7-dash-2"
             fill="#ea5e5e"
             x="60"
             y="0"
             width="50"
             height="10"
             rx="5" /><rect
             id="line-7-dash-1"
             fill="#56b3b4"
             x="0"
             y="0"
             width="50"
             height="10"
             rx="5" /></g><g
           id="line-6"
           transform="translate(0,100)"><rect
             id="line-6-dash-4"
             fill="#4d616e"
             opacity="0.5"
             x="180"
             y="0"
             width="30"
             height="10"
             rx="5" /><rect
             id="line-6-dash-3"
             fill="#56b3b4"
             x="80"
             y="0"
             width="90"
             height="10"
             rx="5" /><rect
             id="line-6-dash-2"
             fill="#f7b93e"
             x="30"
             y="0"
             width="40"
             height="10"
             rx="5" /><rect
             id="line-6-dash-1"
             fill="#ea5e5e"
             x="0"
             y="0"
             width="20"
             height="10"
             rx="5" /></g><g
           id="line-5"
           transform="translate(0,80)"><rect
             id="line-5-dash-4"
             fill="#4d616e"
             opacity="0.5"
             x="190"
             y="0"
             width="20"
             height="10"
             rx="5" /><rect
             id="line-5-dash-3"
             fill="#f7b93e"
             x="120"
             y="0"
             width="60"
             height="10"
             rx="5" /><rect
             id="line-5-dash-2"
             fill="#4d616e"
             opacity="0.5"
             x="70"
             y="0"
             width="40"
             height="10"
             rx="5" /><rect
             id="line-5-dash-1"
             fill="#bf85bf"
             x="0"
             y="0"
             width="60"
             height="10"
             rx="5" /></g><g
           id="line-4"
           transform="translate(0,60)"><rect
             id="line-4-dash-5"
             fill="#4d616e"
             opacity="0.5"
             x="190"
             y="0"
             width="20"
             height="10"
             rx="5" /><rect
             id="line-4-dash-4"
             fill="#ea5e5e"
             x="120"
             y="0"
             width="60"
             height="10"
             rx="5" /><rect
             id="line-4-dash-3"
             fill="#4d616e"
             opacity="0.5"
             x="70"
             y="0"
             width="40"
             height="10"
             rx="5" /><rect
             id="line-4-dash-2"
             fill="#56b3b4"
             x="40"
             y="0"
             width="20"
             height="10"
             rx="5" /><rect
             id="line-4-dash-1"
             fill="#f7b93e"
             x="0"
             y="0"
             width="30"
             height="10"
             rx="5" /></g><g
           id="line-3"
           transform="translate(0,40)"><rect
             id="line-3-dash-4"
             fill="#4d616e"
             opacity="0.5"
             x="180"
             y="0"
             width="30"
             height="10"
             rx="5" /><rect
             id="line-3-dash-3"
             fill="#56b3b4"
             x="150"
             y="0"
             width="20"
             height="10"
             rx="5" /><rect
             id="line-3-dash-2"
             fill="#bf85bf"
             x="90"
             y="0"
             width="50"
             height="10"
             rx="5" /><rect
             id="line-3-dash-1"
             fill="#56b3b4"
             x="0"
             y="0"
             width="80"
             height="10"
             rx="5" /></g><g
           id="line-2"
           transform="translate(0,20)"><rect
             id="line-2-dash-3"
             fill="#4d616e"
             opacity="0.5"
             x="170"
             y="0"
             width="40"
             height="10"
             rx="5" /><rect
             id="line-2-dash-2"
             fill="#f7b93e"
             x="50"
             y="0"
             width="110"
             height="10"
             rx="5" /><rect
             id="line-2-dash-1"
             fill="#ea5e5e"
             x="0"
             y="0"
             width="40"
             height="10"
             rx="5" /></g><g
           id="line-1"><rect
             id="line-1-dash-2"
             fill="#4d616e"
             opacity="0.5"
             x="140"
             y="0"
             width="70"
             height="10"
             rx="5" /><rect
             id="line-1-dash-1"
             fill="#56b3b4"
             x="0"
             y="0"
             width="130"
             height="10"
             rx="5" /></g></g><g
         style="fill:none"
         id="g299"
         transform="matrix(0.2343511,0,0,0.2343511,44.013506,88.082768)"
         inkscape:label="EDLint"><path
           d="M 124.21452,17.084418 73.472797,-12.211443 a 4.1030391,4.1030391 0 0 0 -4.10709,0 l -50.74173,29.295861 a 4.1070855,4.1070855 0 0 0 -2.05557,3.55273 v 58.591721 c 0,1.46479 0.785,2.82033 2.05557,3.55678 l 50.74173,29.295861 c 1.27057,0.73239 2.83247,0.73239 4.10709,0 L 124.21452,82.785649 c 1.27057,-0.7324 2.05152,-2.08794 2.05152,-3.55678 V 20.637148 c 0,-1.468839 -0.78095,-2.820333 -2.05152,-3.556776 z"
           fill="#8080f2"
           id="path284"
           style="stroke-width:4.04639" /><path
           d="M -60.51531,43.770359 0.11578711,-61.70688 C 2.3170271,-65.522624 6.3876971,-68.334864 10.790167,-68.334864 H 132.04833 c 4.40652,0 8.47314,2.81224 10.67842,6.627984 l 60.62706,105.246589 a 12.543808,12.543808 0 0 1 0,12.43861 L 142.72675,160.59367 c -2.20528,3.8117 -6.2719,5.76206 -10.67842,5.76206 H 10.790167 c -4.4024699,0 -8.4731399,-1.88966 -10.67437989,-5.70541 L -60.511264,55.865019 a 11.896385,11.896385 0 0 1 0,-12.09871 z m 50.203557,50.71745 c 0,1.55381 0.9347101,2.98623 2.2781201,3.76314 L 69.195757,142.80574 c 1.3434,0.77691 3.0267,0.77691 4.3701,0 L 150.8519,98.250949 c 1.34341,-0.77691 2.28217,-2.20933 2.28217,-3.76314 V 5.3741671 c 0,-1.549768 -0.92662,-2.986236 -2.26598,-3.763143 L 73.634647,-42.935679 a 4.3862863,4.3862863 0 0 0 -4.36605,0 L -8.0255429,1.6150711 c -1.3434,0.776906 -2.2902601,2.213375 -2.2902601,3.763142 V 94.491849 Z"
           fill="#4b32c3"
           id="path286"
           style="stroke-width:4.04639" /></g></g><text
       xml:space="preserve"
       style="font-size:12.7px;fill:#000000;stroke-width:0.264583"
       x="105.84941"
       y="53.600109"
       id="text1156"
       inkscape:label="title"><tspan
         sodipodi:role="line"
         id="tspan1154"
         style="font-size:12.7px;text-align:center;text-anchor:middle;fill:#ffffff;fill-opacity:1;stroke-width:0.264583"
         x="105.84941"
         y="53.600109">How to setup</tspan><tspan
         sodipodi:role="line"
         style="font-size:12.7px;text-align:center;text-anchor:middle;fill:#ffffff;fill-opacity:1;stroke-width:0.264583"
         x="105.8494"
         y="69.475105"
         id="tspan2664"><tspan
   style="font-style:normal;font-variant:normal;font-weight:bold;font-stretch:normal;font-size:12.7px;font-family:sans-serif;-inkscape-font-specification:'sans-serif Bold'"
   id="tspan5001">ESLint</tspan> and <tspan
   style="font-style:normal;font-variant:normal;font-weight:bold;font-stretch:normal;font-size:12.7px;font-family:sans-serif;-inkscape-font-specification:'sans-serif Bold'"
   id="tspan5003">Prettier</tspan></tspan></text></g></svg>
